<?xml version="1.0" encoding="UTF-8"?>
<svg version="1.1" xmlns="http://www.w3.org/2000/svg" width="500" height="500">
<path d="M0 0 C165 0 330 0 500 0 C500 165 500 330 500 500 C335 500 170 500 0 500 C0 335 0 170 0 0 Z " fill="#FFFEFE" transform="translate(0,0)"/>
<path d="M0 0 C9.30233104 -0.53212487 17.97489109 1.00173988 27 3 C28.18335938 3.25523438 29.36671875 3.51046875 30.5859375 3.7734375 C40.4034503 6.13570879 49.47538474 9.9295205 58.765625 13.828125 C66.35040869 17.0042871 74.08054586 19.71103786 81.890625 22.28125 C100.31211375 28.43120997 117.02290661 36.98564729 133 48 C132.34 48.33 131.68 48.66 131 49 C128.53599906 47.73609816 126.18743661 46.41578481 123.8125 45 C112.32578317 38.35656303 100.75487516 32.82408734 88 29 C89.02738281 29.61746094 90.05476563 30.23492187 91.11328125 30.87109375 C99.60722773 36.03514986 107.55947879 41.36579042 115 48 C115.58668457 48.52110352 116.17336914 49.04220703 116.77783203 49.57910156 C124.08861042 56.1119788 130.9352085 62.68769808 136.97265625 70.4453125 C138.97546323 72.96908083 141.10108614 75.28350297 143.3125 77.625 C170.32739713 107.63635019 183.45818304 147.081226 189.5625 186.375 C189.69180908 187.19846924 189.82111816 188.02193848 189.9543457 188.87036133 C190.87962691 194.89623302 191.60338175 200.91396128 192 207 C192.13277344 205.87980469 192.26554687 204.75960937 192.40234375 203.60546875 C192.58056569 202.13279271 192.75896011 200.66013753 192.9375 199.1875 C193.02451172 198.44951172 193.11152344 197.71152344 193.20117188 196.95117188 C193.58216546 193.83266879 194.00369374 190.98891878 195 188 C195.66 188 196.32 188 197 188 C205.04360524 216.7724373 190.67332307 252.61534299 179.1171875 278.47607422 C178.06179105 280.86040301 177.04068721 283.25607484 176.03125 285.66015625 C169.06547999 302.09680414 160.40906951 317.2456349 149 331 C148.10540873 332.09890947 147.21087873 333.19786884 146.31640625 334.296875 C136.39538834 346.36541416 125.48768757 356.65131267 113 366 C112.43410156 366.43199707 111.86820312 366.86399414 111.28515625 367.30908203 C90.12834912 383.42709993 64.96163088 393.55643223 39 399 C74.55847861 396.52116375 110.84175694 382.7794671 139 361 C139.91652344 360.30648438 140.83304687 359.61296875 141.77734375 358.8984375 C156.62123872 347.25873132 168.39279714 333.51722587 179 318 C179.40299316 317.41541016 179.80598633 316.83082031 180.22119141 316.22851562 C201.39892725 285.07971556 210.0462023 248.01317837 213 211 C215.53750748 213.53750748 215.31070591 215.242168 215.37988281 218.7121582 C215.37827148 219.508396 215.37666016 220.30463379 215.375 221.125 C215.37338867 221.95668701 215.37177734 222.78837402 215.37011719 223.64526367 C215.07766871 239.23821501 212.03497204 255.24841526 207 270 C206.58105469 271.23105469 206.16210938 272.46210938 205.73046875 273.73046875 C196.51690141 299.85130642 182.57355075 322.48988397 163.45068359 342.47753906 C162.4776539 343.4987126 161.51187399 344.52684002 160.55322266 345.56152344 C142.08557107 365.48182469 117.91546288 380.45547233 93 391 C92.03449219 391.43441406 91.06898438 391.86882812 90.07421875 392.31640625 C78.90433293 397.03586794 66.83482149 399.52308527 55 402 C54.22357147 402.17033752 53.44714294 402.34067505 52.64718628 402.51617432 C45.21883128 404.029018 38.02772469 404.3218928 30.4609375 404.3359375 C29.18183502 404.3425943 27.90273254 404.3492511 26.58486938 404.35610962 C23.88369379 404.36800811 21.1826452 404.37179915 18.48144531 404.37060547 C15.76860439 404.37044446 13.05644989 404.38409438 10.34375 404.41162109 C-13.1296501 404.6460892 -36.80309111 403.39883039 -59 395 C-59.66 394.34 -60.32 393.68 -61 393 C-53.15335863 393.58489109 -45.57263566 394.96479306 -37.875 396.5625 C-36.72773438 396.79646484 -35.58046875 397.03042969 -34.3984375 397.27148438 C-31.5980202 397.84323624 -28.79861203 398.4194879 -26 399 C-26.64179199 398.8457959 -27.28358398 398.6915918 -27.94482422 398.53271484 C-35.65899151 396.56733067 -42.82244623 393.77045389 -50.125 390.625 C-51.24003906 390.15578125 -52.35507813 389.6865625 -53.50390625 389.203125 C-58.40014518 387.11544715 -63.16237515 384.98915032 -67.7734375 382.32421875 C-71.87901534 379.96484144 -75.97723636 378.5345224 -80.5 377.1875 C-109.73880216 367.90102938 -133.87389083 349.81724074 -156 329 C-156.70898438 328.34515625 -157.41796875 327.6903125 -158.1484375 327.015625 C-172.10375666 313.68687119 -182.48095088 296.80632197 -190.75 279.5 C-191.09764404 278.77578857 -191.44528809 278.05157715 -191.8034668 277.30541992 C-192.60320957 275.56645656 -193.31118737 273.78581053 -194 272 C-193.67 271.34 -193.34 270.68 -193 270 C-190.24083127 274.50123213 -187.51375132 279.00963728 -185.01953125 283.6640625 C-164.50323879 321.74939759 -132.24097337 350.22204633 -93 368 C-92.34 368 -91.68 368 -91 368 C-91.53367187 367.59910156 -92.06734375 367.19820313 -92.6171875 366.78515625 C-97.83160814 362.8066796 -102.75575311 358.61095819 -107.59375 354.18359375 C-109.71359488 352.25990335 -111.87455149 350.40749626 -114.0625 348.5625 C-122.65388645 340.99593102 -129.28949931 332.10978078 -135.95166016 322.86425781 C-139.00692496 318.6346935 -142.14294934 314.57903684 -145.57739258 310.65161133 C-159.19291958 294.84432796 -168.60521623 276.38698245 -176 257 C-176.28359375 256.25782227 -176.5671875 255.51564453 -176.859375 254.75097656 C-184.13542497 235.31671573 -187.1747443 215.26499443 -187.1875 194.5625 C-187.19974609 193.52029297 -187.21199219 192.47808594 -187.22460938 191.40429688 C-187.23799004 184.20995708 -186.91464316 176.9740784 -185 170 C-184.34 169.67 -183.68 169.34 -183 169 C-182.94465088 169.91177002 -182.88930176 170.82354004 -182.83227539 171.76293945 C-182.62296629 175.19791736 -182.41217804 178.63279826 -182.20043945 182.06762695 C-182.10969212 183.54447957 -182.01950718 185.02136687 -181.92993164 186.49829102 C-181.63644812 191.333391 -181.32586709 196.16696653 -181 201 C-180.93272705 202.02295166 -180.8654541 203.04590332 -180.79614258 204.09985352 C-180.29204603 210.66130533 -179.08312954 216.91521598 -177.5625 223.3125 C-177.23668945 224.7365918 -177.23668945 224.7365918 -176.90429688 226.18945312 C-175.81395494 230.88152518 -174.6346741 235.4609282 -173 240 C-173.11593506 239.36497559 -173.23187012 238.72995117 -173.35131836 238.07568359 C-173.88051629 235.1755414 -174.40901411 232.27527203 -174.9375 229.375 C-175.11990234 228.37597656 -175.30230469 227.37695312 -175.49023438 226.34765625 C-175.75610352 224.88779297 -175.75610352 224.88779297 -176.02734375 223.3984375 C-176.27085571 222.06304932 -176.27085571 222.06304932 -176.51928711 220.70068359 C-176.67792236 219.80945801 -176.83655762 218.91823242 -177 218 C-177.18159668 217.04279053 -177.36319336 216.08558105 -177.55029297 215.09936523 C-178.04331442 211.70147853 -178.14654954 208.44501033 -178.16796875 205.01171875 C-178.17229416 204.35600891 -178.17661957 203.70029907 -178.18107605 203.02471924 C-178.1911395 200.9122382 -178.1912664 198.80000009 -178.1875 196.6875 C-178.18559662 195.60313156 -178.18559662 195.60313156 -178.18365479 194.49685669 C-178.0335168 149.77745117 -161.90488972 106.71572311 -131 74 C-129.89140313 72.6912398 -128.78709026 71.37883641 -127.6875 70.0625 C-110.88359276 50.91296727 -88.27014138 36.90129894 -65 27 C-86.18195279 34.81113226 -105.44595074 44.72303813 -123 59 C-123.55848633 59.45101074 -124.11697266 59.90202148 -124.69238281 60.36669922 C-127.0979454 62.31265072 -129.48959586 64.27307709 -131.86328125 66.2578125 C-134 68 -134 68 -137 70 C-128.49737811 49.55653753 -92.6156501 35.23137466 -74.23046875 27.51171875 C-53.73751378 19.29556352 -32.14508125 13.57694523 -10 13 C-8.73978027 12.96712891 -8.73978027 12.96712891 -7.45410156 12.93359375 C6.06432194 12.64647679 19.50968532 13.13368474 33 13.9375 C33.73183502 13.98097565 34.46367004 14.02445129 35.21768188 14.06924438 C42.83477094 14.52970794 50.42475679 15.06154911 58 16 C39.25249944 7.8452576 20.15613046 4.05097931 0 1 C0 0.67 0 0.34 0 0 Z " fill="#FEC984" transform="translate(251,37)"/>
<path d="M0 0 C7.08185582 2.57275833 11.28376528 8.56331533 15.72119141 14.34765625 C17.57964235 16.74895369 19.49239251 19.10539114 21.39990234 21.46777344 C27.81730337 29.42787773 34.05679189 37.51911823 40.25732422 45.6484375 C49.31122541 57.5114499 58.42838375 69.42838375 69 80 C71.31270966 79.83626834 73.62517103 79.66902303 75.9375 79.5 C79.83139415 79.497203 82.79701089 79.81478555 85.65234375 82.62792969 C88.88809143 87.04241402 91.34422127 91.90513397 93.82275391 96.77246094 C98.5256198 105.67104003 106.04531341 115.69478234 114.2421875 121.62109375 C116 123 116 123 116.375 125.5625 C116 128 116 128 114 130 C108.70438345 129.81473062 105.08661172 127.45356219 100.875 124.5 C100.22265381 124.05293701 99.57030762 123.60587402 98.89819336 123.14526367 C89.87170307 116.91239899 81.10253708 110.41143833 73 103 C73.44472656 103.44730469 73.88945312 103.89460938 74.34765625 104.35546875 C79.01432512 109.34104438 79.01432512 109.34104438 78.9375 112.875 C78 115 78 115 77 116 C74.6640625 116.2890625 74.6640625 116.2890625 72 116 C70.1484375 114.5234375 70.1484375 114.5234375 68.375 112.375 C67.68535156 111.54871094 66.99570312 110.72242188 66.28515625 109.87109375 C62.83261017 105.53327944 59.39420334 101.18618339 55.9921875 96.80859375 C53.41320463 93.50389709 50.76624668 90.26008707 48.10205078 87.02392578 C42.17789063 79.82074484 36.60046179 72.47277581 31.27880859 64.81591797 C29.94549488 62.92260231 28.58017771 61.05600451 27.20703125 59.19140625 C20.3079128 49.744638 14.29789453 39.94509248 8.54394531 29.75830078 C7.98030273 28.76556152 7.41666016 27.77282227 6.8359375 26.75 C6.33626465 25.85796875 5.8365918 24.9659375 5.32177734 24.046875 C4.16105022 21.86853443 4.16105022 21.86853443 2 21 C1.34 22.32 0.68 23.64 0 25 C-0.66 25 -1.32 25 -2 25 C-1.68546875 25.92039062 -1.3709375 26.84078125 -1.046875 27.7890625 C1.11116599 34.15710794 3.17693806 40.50746357 4.9375 47 C7.05680283 54.58986096 9.94016688 61.74615561 13 69 C13.474375 70.16402344 13.94875 71.32804687 14.4375 72.52734375 C16.03963817 76.08809584 17.87676966 79.31042797 19.9375 82.625 C20.60652344 83.71039063 21.27554688 84.79578125 21.96484375 85.9140625 C24.64658414 89.9804251 26.92507157 93.28338104 31 96 C31.3125 98.5 31.3125 98.5 31 101 C29 103 29 103 25.375 103.0625 C13.82324128 101.47623265 0.39334379 94.6527396 -7.63671875 86.296875 C-8.92791084 84.77025322 -8.92791084 84.77025322 -11 85 C-12.21485385 86.72421427 -13.34818704 88.50634884 -14.4375 90.3125 C-17.69950529 95.70220637 -17.69950529 95.70220637 -19.73828125 97.72265625 C-20.15464844 98.14417969 -20.57101562 98.56570312 -21 99 C-20.74853421 101.13745922 -20.54074221 102.45925779 -19 104 C-18.43869856 110.34401159 -19.32233306 116.30316167 -20.54296875 122.51171875 C-21.07868238 125.42838186 -21.37836638 128.04874224 -21 131 C-17.8679404 133.08803974 -16.6685424 133.3550906 -13.03125 132.76171875 C-9.522295 131.44586063 -6.94982883 128.90002417 -4.2109375 126.3984375 C-2 125 -2 125 0.41796875 125.015625 C3.74025727 126.28221609 5.94835616 128.10491216 8.6875 130.375 C14.01106456 134.6496984 19.54687295 138.38348644 25.375 141.9375 C26.12354248 142.39753418 26.87208496 142.85756836 27.64331055 143.33154297 C31.9829467 145.94566518 36.2952555 148.11934356 41 150 C41.04254356 151.99954746 41.04080783 154.00041636 41 156 C39.45772637 157.54227363 37.97558972 157.19564964 35.82592773 157.2722168 C34.49204262 157.32051888 34.49204262 157.32051888 33.13121033 157.36979675 C28.99540166 157.48123397 24.85974676 157.56316893 20.72290039 157.62475586 C18.55900888 157.66608157 16.39539009 157.72711399 14.23266602 157.80932617 C-1.20721795 158.38637354 -10.86374715 156.69673683 -23 147 C-24.52576382 145.92390385 -26.05688565 144.85527835 -27.59765625 143.80078125 C-29.35836496 142.5447708 -31.1062353 141.27956592 -32.83398438 139.97851562 C-36.10454674 137.6786185 -37.75780399 136.98931853 -41.80859375 137.16796875 C-44.86897458 137.84819361 -44.86897458 137.84819361 -47 139 C-49.18306683 137.82829747 -51.19079171 136.61493393 -53.25 135.25 C-53.87551758 134.83806396 -54.50103516 134.42612793 -55.14550781 134.00170898 C-77.39833162 119.1246645 -96.02663692 100.52725652 -109 77 C-107.2352269 93.58886712 -97.77075858 107.8109437 -86.4609375 119.66015625 C-85.62820312 120.53542969 -84.79546875 121.41070312 -83.9375 122.3125 C-83.16277344 123.09238281 -82.38804687 123.87226563 -81.58984375 124.67578125 C-80 127 -80 127 -80.19140625 129.73046875 C-81 132 -81 132 -82 133 C-87.01762683 133.4457809 -91.44622611 133.35033491 -96 131 C-87.13235512 142.16769027 -78.53267513 145.06025625 -65 148 C-65 148.99 -65 149.98 -65 151 C-73.20389479 158.52175158 -84.94356506 167.03914671 -96.375 167.0625 C-99.92578125 166.6328125 -99.92578125 166.6328125 -103 166 C-103.79792969 165.91492188 -104.59585938 165.82984375 -105.41796875 165.7421875 C-117.40818133 164.03866003 -130.71544315 155.38477105 -138.47265625 146.26953125 C-141.33627831 143.88928274 -144.67292663 144.42239337 -148.234375 144.515625 C-151.98202055 145.1719923 -153.52571894 146.72690908 -156.16796875 149.33203125 C-162.56267755 155.15407956 -169.83872405 156.44694844 -178.1875 156.5 C-179.30958862 156.50942627 -179.30958862 156.50942627 -180.4543457 156.51904297 C-186.45547416 156.38269881 -192.59802289 155.40197711 -197 151 C-196.90373158 147.5796396 -196.28873858 146.2871665 -193.84765625 143.859375 C-192.92855469 143.16328125 -192.00945312 142.4671875 -191.0625 141.75 C-186.39601936 138.10581538 -181.94450839 134.34451159 -177.57421875 130.3515625 C-175.81924703 128.74838651 -174.05032893 127.16037665 -172.26953125 125.5859375 C-159.21791078 113.92578534 -147.24007217 101.20643159 -137 87 C-136.37996094 86.15308594 -135.75992188 85.30617188 -135.12109375 84.43359375 C-131.84857641 79.87256847 -128.88807944 75.18846573 -126 70.375 C-122.15942008 64.05855109 -118.2148076 58.14320507 -112 54 C-104.35606058 52.66757019 -98.33475723 54.79693886 -92 59 C-87.72798371 62.39909655 -83.85181318 66.14069434 -80 70 C-66.33980112 53.62821021 -66.33980112 53.62821021 -53.5625 36.56640625 C-52.96369019 35.731698 -52.96369019 35.731698 -52.3527832 34.88012695 C-51.2589925 33.35001161 -50.18163014 31.8081903 -49.10546875 30.265625 C-46.65489911 27.6286484 -45.55525546 27.15244587 -42 27 C-41.14921875 27.20367187 -40.2984375 27.40734375 -39.421875 27.6171875 C-36.9873456 28.26321913 -36.9873456 28.26321913 -35.078125 26.8828125 C-34.47484375 26.30273438 -33.8715625 25.72265625 -33.25 25.125 C-32.22519531 24.15240234 -32.22519531 24.15240234 -31.1796875 23.16015625 C-30.46039063 22.44730469 -29.74109375 21.73445313 -29 21 C-28.23945313 20.27683594 -27.47890625 19.55367187 -26.6953125 18.80859375 C-23.06334103 15.29279645 -19.71950411 11.78389285 -16.75 7.6875 C-12.013324 1.22135647 -8.1319414 -1.50338413 0 0 Z " fill="#030201" transform="translate(306,93)"/>
<path d="M0 0 C2.68950393 3.16763796 4.83894328 6.37183114 6.83959961 10.01098633 C11.82865304 18.99269416 18.14801402 26.09511332 25.36767578 33.34863281 C26.79049628 34.78805217 28.17784568 36.26236285 29.55859375 37.7421875 C38.0489014 46.70497433 51.14845982 58.911678 63 63 C64.99786055 62.1470525 64.99786055 62.1470525 67 61 C71.54096271 60.44405309 73.84899802 61.8240266 77.578125 64.33203125 C78.64812744 65.04278809 79.71812988 65.75354492 80.82055664 66.48583984 C81.96378949 67.26126783 83.10693547 68.03682391 84.25 68.8125 C85.42815066 69.59967534 86.60711199 70.38563868 87.78686523 71.17041016 C90.12722524 72.72851467 92.46414481 74.29156291 94.79833984 75.85888672 C98.85891688 78.57440148 102.95356995 81.23347431 107.0625 83.875 C108.39726437 84.73677947 109.7319017 85.59875575 111.06640625 86.4609375 C111.71109863 86.87698242 112.35579102 87.29302734 113.02001953 87.72167969 C116.515203 89.97824943 120.00741369 92.23941348 123.5 94.5 C127.67879204 97.20451306 131.8578782 99.90856144 136.0390625 102.609375 C148.04963941 110.37007763 160.02650919 118.18222958 172 126 C168.81959364 128.60849118 166.61372038 129.72195965 162.37109375 129.52734375 C157.00787618 128.33453589 152.54495619 124.96118455 148 122 C146.75310166 121.20364759 145.50568489 120.40810646 144.2578125 119.61328125 C140.65446159 117.30637872 137.07006752 114.97135457 133.48974609 112.62890625 C130.79302933 110.86459028 128.09398107 109.10388131 125.39453125 107.34375 C122.43595951 105.41454706 119.47743218 103.48527704 116.51928711 101.55541992 C108.74897132 96.48636441 100.97748363 91.42005848 93.17138672 86.40625 C90.75083101 84.83863128 88.34661208 83.24730932 85.94140625 81.65625 C84.23205156 80.54123619 82.52242152 79.42664436 80.8125 78.3125 C80.02198242 77.78245361 79.23146484 77.25240723 78.41699219 76.70629883 C72.6882759 72.98723343 72.6882759 72.98723343 66 73 C61.15569768 75.31972188 55.56248826 78.28756164 52.81640625 83.0546875 C52.21283017 85.10995549 52.21283017 85.10995549 52 88 C50.35225378 89.64774622 48.26333549 89.15176534 45.99609375 89.234375 C39.84518842 89.75414187 36.05411316 91.76914316 31.0625 95.25 C30.26110596 95.78214111 29.45971191 96.31428223 28.6340332 96.86254883 C26.94148351 97.98735802 25.25460905 99.12074934 23.57324219 100.26220703 C20.15972544 102.56746436 16.70220959 104.80139775 13.24243164 107.03637695 C10.72093306 108.66589391 8.20544622 110.30431695 5.69140625 111.9453125 C0.45984602 115.3563196 -4.79456467 118.73091916 -10.0546875 122.09765625 C-12.11995127 123.43158656 -14.16542606 124.79642197 -16.1953125 126.18359375 C-19.53366936 128.34562152 -22.08665365 129.16106031 -26 129.25 C-27.0209375 129.28867187 -27.0209375 129.28867187 -28.0625 129.328125 C-30.54962821 128.9069178 -31.31541173 127.80747254 -33 126 C-25.76322275 120.83674903 -18.37526807 115.95824196 -10.875 111.1875 C-9.78711182 110.49333984 -8.69922363 109.79917969 -7.57836914 109.08398438 C0.91578979 103.67124321 9.43954935 98.30722425 18 93 C16.75283203 92.92652344 16.75283203 92.92652344 15.48046875 92.8515625 C13.85044922 92.73941406 13.85044922 92.73941406 12.1875 92.625 C11.10855469 92.55539062 10.02960938 92.48578125 8.91796875 92.4140625 C6 92 6 92 3 90 C4.17433594 90.12761719 5.34867188 90.25523437 6.55859375 90.38671875 C19.55744383 91.34889187 27.01139504 88.26370288 37.21728516 80.36132812 C39.73055136 78.44213169 42.3507441 76.72509687 45 75 C41.56902168 72.71268112 38.82334971 72.16722541 34.8125 71.25 C28.42486635 69.66721676 23.76654159 67.56695734 19 63 C18.47664063 62.52949219 17.95328125 62.05898437 17.4140625 61.57421875 C16 60.25 16 60.25 14 58 C14 57.34 14 56.68 14 56 C14.639375 56.165 15.27875 56.33 15.9375 56.5 C19.97586652 57.15932515 23.91807258 57.08003779 28 57 C29.13210475 54.86920862 29.13210475 54.86920862 29 52 C27.56847562 50.20078957 25.91681269 48.75034218 24.2265625 47.19140625 C11.48038929 34.6464884 1.42427153 17.94582125 0 0 Z " fill="#4A6876" transform="translate(196,168)"/>
<path d="M0 0 C3.43587245 0.01603391 6.87056038 0.00010639 10.30639648 -0.01904297 C26.93936547 -0.03629024 42.64175774 1.21140362 58.51538086 6.51611328 C59.429729 6.81686768 60.34407715 7.11762207 61.28613281 7.42749023 C83.20554642 14.84848885 102.51975917 26.06822668 120.64038086 40.39111328 C117.45863349 40.39111328 116.6209369 40.00744589 113.97241211 38.44970703 C112.8920166 37.8264856 112.8920166 37.8264856 111.78979492 37.19067383 C111.01861328 36.74119385 110.24743164 36.29171387 109.45288086 35.82861328 C96.69656317 28.57650551 83.56167591 23.03663874 69.64038086 18.39111328 C69.00632324 18.17712891 68.37226563 17.96314453 67.71899414 17.74267578 C58.14975684 14.53484666 48.61576355 12.03191968 38.64038086 10.39111328 C37.82827148 10.25431152 37.01616211 10.11750977 36.17944336 9.9765625 C6.05175889 4.57703844 6.05175889 4.57703844 -22.76196289 10.91455078 C-26.35676483 12.95791188 -29.88648076 12.95988039 -33.92211914 13.20361328 C-69.96786655 16.26525266 -100.80073598 36.52205572 -128.35961914 58.39111328 C-129.07118164 58.92349609 -129.78274414 59.45587891 -130.51586914 60.00439453 C-142.23140134 69.29519568 -150.30705827 83.99159477 -158.35961914 96.39111328 C-157.69961914 96.39111328 -157.03961914 96.39111328 -156.35961914 96.39111328 C-157.82845956 99.65520309 -159.76035588 102.52065854 -161.78564453 105.46337891 C-171.42305618 119.49564931 -177.32898051 134.54306225 -183.35961914 150.39111328 C-184.01961914 149.73111328 -184.67961914 149.07111328 -185.35961914 148.39111328 C-204.54196666 190.83715887 -204.56127507 243.25498903 -188.17993164 286.66064453 C-187.35961914 289.39111328 -187.35961914 289.39111328 -188.35961914 292.39111328 C-189.12083082 290.68774616 -189.86767045 288.97795875 -190.60961914 287.26611328 C-191.02727539 286.31478516 -191.44493164 285.36345703 -191.87524414 284.38330078 C-200.077387 263.58459911 -202.85028455 240.67057404 -202.79711914 218.45361328 C-202.79715942 217.75635132 -202.79719971 217.05908936 -202.79724121 216.34069824 C-202.75035528 202.43367238 -201.09145993 188.98120457 -197.60961914 175.51611328 C-197.21492432 173.97286377 -197.21492432 173.97286377 -196.81225586 172.3984375 C-193.00500096 157.85195735 -187.63509565 144.31151453 -181.38305664 130.66162109 C-180.36532857 128.40377971 -179.3880818 126.13246873 -178.42211914 123.85205078 C-169.80760321 103.63017217 -158.39028547 85.46911417 -143.35961914 69.39111328 C-142.22877763 68.1045577 -141.10351277 66.81307312 -139.98461914 65.51611328 C-127.92498421 51.72969459 -115.85260454 40.28596663 -100.35961914 30.39111328 C-119.14406784 34.46886682 -136.24480692 50.10247623 -150.35961914 62.39111328 C-151.10985352 63.01759766 -151.86008789 63.64408203 -152.63305664 64.28955078 C-158.07118098 68.86789261 -162.71579226 74.01975352 -167.35961914 79.39111328 C-168.15368164 80.28572266 -168.94774414 81.18033203 -169.76586914 82.10205078 C-178.12096885 91.75271975 -184.85993986 102.42960796 -191.35961914 113.39111328 C-191.68961914 112.73111328 -192.01961914 112.07111328 -192.35961914 111.39111328 C-186.09792967 97.9183085 -175.89117917 85.63621219 -166.35961914 74.39111328 C-165.75375977 73.66150391 -165.14790039 72.93189453 -164.52368164 72.18017578 C-161.09992918 68.13673962 -157.48307601 64.58064838 -153.43774414 61.16064453 C-152.04868876 59.97785865 -150.68367777 58.7662605 -149.34399414 57.52783203 C-138.21618608 47.2449131 -125.69621601 39.44673305 -112.35961914 32.39111328 C-111.45445557 31.90964844 -111.45445557 31.90964844 -110.53100586 31.41845703 C-99.20114997 25.4392452 -87.46493938 20.80217159 -75.41040039 16.51611328 C-73.01524309 15.63287986 -70.64653933 14.71564495 -68.27758789 13.76611328 C-58.13259895 9.70700896 -47.98333291 6.01170728 -37.35961914 3.39111328 C-36.38597412 3.12927246 -35.4123291 2.86743164 -34.40917969 2.59765625 C-23.00661572 -0.12027034 -11.67586635 -0.06471382 0 0 Z " fill="#FFCD8B" transform="translate(256.359619140625,25.60888671875)"/>
<path d="M0 0 C0 4.02017069 -1.84054729 6.54395073 -3.875 9.875 C-4.27992676 10.54120361 -4.68485352 11.20740723 -5.10205078 11.89379883 C-11.8126373 22.72932394 -19.84561202 32.36655077 -28.63525391 41.56787109 C-29.94948467 42.94699053 -31.24660661 44.34235213 -32.54296875 45.73828125 C-52.16455264 66.25040601 -77.59416898 80.20248765 -104 90 C-105.17820312 90.44214844 -106.35640625 90.88429688 -107.5703125 91.33984375 C-117.84331022 94.98975331 -128.28834871 97.08498456 -139 99 C-140.57587891 99.29390625 -140.57587891 99.29390625 -142.18359375 99.59375 C-160.80070865 102.27915908 -179.93945991 97.99486054 -197.625 92.5 C-198.26391174 92.30286407 -198.90282349 92.10572815 -199.56109619 91.90261841 C-211.03467888 88.326444 -211.03467888 88.326444 -215 85 C-214.30229492 85.06928711 -213.60458984 85.13857422 -212.88574219 85.20996094 C-203.25819766 86.06526919 -193.66957086 86.21964301 -184.00878906 86.24023438 C-181.26857057 86.24993426 -178.52910608 86.28106171 -175.7890625 86.3125 C-164.49336939 86.3806533 -154.04191418 85.31252294 -143 83 C-140.69250268 82.57858694 -138.38395865 82.16284931 -136.07421875 81.75390625 C-133.94508393 81.35799808 -131.81617248 80.96088651 -129.6875 80.5625 C-128.62466797 80.37107422 -127.56183594 80.17964844 -126.46679688 79.98242188 C-119.9880785 78.76248039 -113.86159292 77.10576111 -107.64282227 74.91308594 C-105.19583667 74.06766089 -102.75083953 73.35319714 -100.25 72.6875 C-95.72265451 71.34822095 -91.44570353 69.57307467 -87.125 67.6875 C-86.50141602 67.41574951 -85.87783203 67.14399902 -85.23535156 66.86401367 C-83.14479283 65.9336031 -81.0709438 64.97333694 -79 64 C-78.08887451 63.57251465 -77.17774902 63.1450293 -76.23901367 62.70458984 C-68.77580989 59.09655495 -61.91663778 54.90135971 -55.0625 50.25 C-54.01344482 49.54262695 -52.96438965 48.83525391 -51.88354492 48.10644531 C-36.52825559 37.68308588 -21.82101499 26.43628379 -10 12 C-9.12076366 10.94710423 -8.24046605 9.89509419 -7.359375 8.84375 C-4.89747806 5.90304352 -2.44650199 2.95352353 0 0 Z " fill="#FFFDFB" transform="translate(415,337)"/>
<path d="M0 0 C2.68950393 3.16763796 4.83894328 6.37183114 6.83959961 10.01098633 C11.82865304 18.99269416 18.14801402 26.09511332 25.36767578 33.34863281 C26.79049628 34.78805217 28.17784568 36.26236285 29.55859375 37.7421875 C38.96137427 47.66822562 50.47861587 55.70312338 62 63 C60.37148426 67.88554723 55.72472536 69.98177032 51.41015625 72.4453125 C47.30280718 74.31784965 45.45123173 74.43154426 41.3125 72.90234375 C40.549375 72.60457031 39.78625 72.30679688 39 72 C36.98128858 71.57317139 34.96028517 71.15708552 32.9375 70.75 C27.18570654 69.30107493 23.33592214 66.98544345 19 63 C18.47277344 62.52820313 17.94554687 62.05640625 17.40234375 61.5703125 C16 60.25 16 60.25 14 58 C14 57.34 14 56.68 14 56 C14.9590625 56.2475 14.9590625 56.2475 15.9375 56.5 C19.97586652 57.15932515 23.91807258 57.08003779 28 57 C29.13210475 54.86920862 29.13210475 54.86920862 29 52 C27.56847562 50.20078957 25.91681269 48.75034218 24.2265625 47.19140625 C11.48038929 34.6464884 1.42427153 17.94582125 0 0 Z " fill="#F5C27F" transform="translate(196,168)"/>
<path d="M0 0 C2.91008528 1.32471659 5.06848025 2.78551741 7.390625 4.9765625 C8.01340332 5.56026611 8.63618164 6.14396973 9.27783203 6.74536133 C9.92864746 7.36564209 10.57946289 7.98592285 11.25 8.625 C11.92530762 9.26526123 12.60061523 9.90552246 13.29638672 10.56518555 C14.62320689 11.82590479 15.94799061 13.0887715 17.27050781 14.35400391 C18.60068235 15.61996053 19.9489523 16.86692422 21.3046875 18.10546875 C25.80278605 22.32364271 29.58656722 27.0885477 33.375 31.9375 C33.88047363 32.57469971 34.38594727 33.21189941 34.90673828 33.8684082 C44.98178363 47.05332853 52.50399498 62.28816874 60.0625 77 C60.49788086 77.84695435 60.93326172 78.69390869 61.38183594 79.56652832 C71.4789822 99.30733952 79.39987714 119.00800631 83 141 C83.19464844 142.07121094 83.38929688 143.14242187 83.58984375 144.24609375 C84.1799626 149.64708623 84.10437907 155.0093277 84.0625 160.4375 C84.05798828 161.55060547 84.05347656 162.66371094 84.04882812 163.81054688 C84.03711193 166.54042101 84.02070699 169.27018174 84 172 C83.34 172 82.68 172 82 172 C81.96559814 171.33806641 81.93119629 170.67613281 81.89575195 169.99414062 C80.55436429 145.82004738 76.22781601 123.76283392 68 101 C68.20496094 101.82242188 68.40992188 102.64484375 68.62109375 103.4921875 C68.89050781 104.60851562 69.15992188 105.72484375 69.4375 106.875 C69.70433594 107.96554688 69.97117187 109.05609375 70.24609375 110.1796875 C71.89367651 118.52857839 72.20378337 126.88269498 72.25 135.375 C72.270625 136.34566406 72.29125 137.31632813 72.3125 138.31640625 C72.32023437 139.71826172 72.32023437 139.71826172 72.328125 141.1484375 C72.3374707 141.98552246 72.34681641 142.82260742 72.35644531 143.68505859 C71.92371446 146.49543802 70.84716632 147.88155018 69 150 C67.26698972 148.26698972 67.64358248 145.84081538 67.45703125 143.47265625 C64.28934686 106.64547655 56.03093446 65.36766784 28 39 C28.33 38.34 28.66 37.68 29 37 C31.475 38.98 31.475 38.98 34 41 C31.74810066 37.86117941 29.47627695 34.7377554 27.18847656 31.625 C26.05085899 30.06953933 24.92742321 28.5037363 23.8046875 26.9375 C17.13240892 17.8903426 9.41122428 10.15223494 1.31005859 2.37597656 C0 1 0 1 0 0 Z " fill="#FFCD8C" transform="translate(386,74)"/>
<path d="M0 0 C2.84629844 1.33494075 5.27137317 2.84860851 7.765625 4.7578125 C17.44890636 12.04313199 26.9668887 18.02167669 38 23 C39.49123367 23.69456529 40.98210924 24.38989984 42.47265625 25.0859375 C67.55675613 36.66465525 93.47653123 41.64169894 121 43 C121 43.33 121 43.66 121 44 C115.32986208 44.07528269 109.66002769 44.12912526 103.98950195 44.16479492 C102.06855184 44.17969594 100.14763458 44.20002377 98.22680664 44.22631836 C85.73979952 44.39272478 74.22451998 43.62891182 62 41 C60.58037572 40.72505256 59.1602023 40.45292574 57.73950195 40.18359375 C46.9646709 38.0691724 38.89081234 33.29765874 30 27 C28.9275 26.25234375 27.855 25.5046875 26.75 24.734375 C16.89725081 17.60139512 7.61378607 9.51723259 0 0 Z " fill="#FFFBF7" transform="translate(135,377)"/>
<path d="M0 0 C0.33 0 0.66 0 1 0 C1.55038101 32.48518073 -5.97082319 59.42663068 -23.87109375 86.88671875 C-25.65400502 90.2242793 -26 93.24993413 -26 97 C-27.98 97 -29.96 97 -32 97 C-32.24363281 97.72574219 -32.48726563 98.45148438 -32.73828125 99.19921875 C-34.15514759 102.34439883 -35.83115811 104.30204281 -38.1875 106.8125 C-38.98800781 107.67617188 -39.78851563 108.53984375 -40.61328125 109.4296875 C-41.79470703 110.70199219 -41.79470703 110.70199219 -43 112 C-44.84269013 114.09284501 -46.66881272 116.19894032 -48.4921875 118.30859375 C-49.94138986 119.9342534 -51.444151 121.47675861 -53 123 C-53.66 122.67 -54.32 122.34 -55 122 C-54.16597656 121.12859375 -53.33195312 120.2571875 -52.47265625 119.359375 C-39.25656365 106.79619321 -39.25656365 106.79619321 -32 91 C-35.3 91 -38.6 91 -42 91 C-42.33 92.98 -42.66 94.96 -43 97 C-44.65 97 -46.3 97 -48 97 C-46.43889635 88.25781959 -43.21518143 80.24016625 -40 72 C-38.02 72 -36.04 72 -34 72 C-33.16080602 74.26882087 -32.32848276 76.53977027 -31.5 78.8125 C-31.26152344 79.45509766 -31.02304687 80.09769531 -30.77734375 80.75976562 C-29.72931254 83.64933739 -29 85.90076061 -29 89 C-28.34 89 -27.68 89 -27 89 C-26.73445313 88.11570312 -26.46890625 87.23140625 -26.1953125 86.3203125 C-25.04776642 83.13268451 -23.69764127 80.71492942 -21.875 77.875 C-8.00320288 54.515009 -1.78639754 26.85756307 0 0 Z " fill="#FEF9F2" transform="translate(437,243)"/>
<path d="M0 0 C1.98 0 3.96 0 6 0 C7.00508801 1.78881736 8.00392736 3.58114696 9 5.375 C9.8353125 6.87160156 9.8353125 6.87160156 10.6875 8.3984375 C12 11 12 11 12 13 C12.66 13 13.32 13 14 13 C14.2475 12.34 14.495 11.68 14.75 11 C16.31817045 7.23639093 18.14505046 3.6288576 20 0 C21.98 0 23.96 0 26 0 C26 8.25 26 16.5 26 25 C24.35 25 22.7 25 21 25 C20.67 20.38 20.34 15.76 20 11 C18.35 14.3 16.7 17.6 15 21 C13.68 21 12.36 21 11 21 C9.35 17.7 7.7 14.4 6 11 C5.67 15.62 5.34 20.24 5 25 C3.35 25 1.7 25 0 25 C0 16.75 0 8.5 0 0 Z " fill="#FEF9F3" transform="translate(355,315)"/>
<path d="M0 0 C13.125 -0.66964286 13.125 -0.66964286 16.8125 2.125 C19 5 19 5 19.5 8.0625 C19.03551932 10.79132397 18.44151772 12.6575337 17 15 C16.34 15 15.68 15 15 15 C16.65 18.3 18.3 21.6 20 25 C18.35 25 16.7 25 15 25 C13.59375 23.50390625 13.59375 23.50390625 12.5 21.5625 C10.58135453 18.46610672 10.58135453 18.46610672 7.1875 17.0625 C6.465625 17.041875 5.74375 17.02125 5 17 C5 19.64 5 22.28 5 25 C3.35 25 1.7 25 0 25 C0 16.75 0 8.5 0 0 Z " fill="#FEFAF6" transform="translate(184,315)"/>
<path d="M0 0 C5.78085505 1.15617101 7.11047684 3.06069263 10.3125 7.5625 C10.76689453 8.17802734 11.22128906 8.79355469 11.68945312 9.42773438 C12.80524319 10.94285983 13.90430371 12.47028033 15 14 C15.33 9.38 15.66 4.76 16 0 C17.65 0 19.3 0 21 0 C21 8.25 21 16.5 21 25 C15.40089239 23.88017848 13.96055333 22.18034691 10.6875 17.9375 C10.0059082 17.08575195 10.0059082 17.08575195 9.31054688 16.21679688 C8.19563356 14.82022125 7.09624226 13.41127888 6 12 C5.67 16.29 5.34 20.58 5 25 C3.35 25 1.7 25 0 25 C0 16.75 0 8.5 0 0 Z " fill="#FEFBF7" transform="translate(267,315)"/>
<path d="M0 0 C5.94 0 11.88 0 18 0 C18 5.61 18 11.22 18 17 C12.06 17 6.12 17 0 17 C0 11.39 0 5.78 0 0 Z " fill="#FFFBF6" transform="translate(268,290)"/>
<path d="M0 0 C5.61 0 11.22 0 17 0 C17 5.61 17 11.22 17 17 C11.39 17 5.78 17 0 17 C0 11.39 0 5.78 0 0 Z " fill="#FFFDFC" transform="translate(243,290)"/>
<path d="M0 0 C1.65 0 3.3 0 5 0 C14 21.1352459 14 21.1352459 14 25 C12.35 25 10.7 25 9 25 C8.34 23.35 7.68 21.7 7 20 C4.03 19.67 1.06 19.34 -2 19 C-2.66 20.98 -3.32 22.96 -4 25 C-5.65 25 -7.3 25 -9 25 C-8.06630907 22.14453745 -7.12817599 19.29066146 -6.1875 16.4375 C-5.79594727 15.23770508 -5.79594727 15.23770508 -5.39648438 14.01367188 C-3.81339179 9.2253054 -2.05819351 4.60466715 0 0 Z " fill="#FEFAF5" transform="translate(162,315)"/>
<path d="M0 0 C0.99 0 1.98 0 3 0 C2.82984375 0.6084375 2.6596875 1.216875 2.484375 1.84375 C-1.0156516 14.50342067 -4.26536315 26.96446166 -6 40 C-6.17789063 41.02609375 -6.35578125 42.0521875 -6.5390625 43.109375 C-9.88693122 71.36765676 -5.85043814 102.69270133 4.1796875 129.26953125 C5 132 5 132 4 135 C3.23878832 133.29663288 2.49194869 131.58684547 1.75 129.875 C1.12351562 128.44800781 1.12351562 128.44800781 0.484375 126.9921875 C-7.71776786 106.19348583 -10.49066541 83.27946076 -10.4375 61.0625 C-10.43754028 60.36523804 -10.43758057 59.66797607 -10.43762207 58.94958496 C-10.38977047 44.75612761 -8.60248839 31.16084066 -5 17.4375 C-4.73960938 16.41076172 -4.47921875 15.38402344 -4.2109375 14.32617188 C-2.97061393 9.48703069 -1.67501524 4.71098037 0 0 Z " fill="#FFD39A" transform="translate(64,183)"/>
<path d="M0 0 C5.61 0 11.22 0 17 0 C17 1.65 17 3.3 17 5 C13.04 5 9.08 5 5 5 C5 6.98 5 8.96 5 11 C8.3 11 11.6 11 15 11 C15 11.99 15 12.98 15 14 C11.7 14 8.4 14 5 14 C5 16.31 5 18.62 5 21 C8.96 21 12.92 21 17 21 C17 22.32 17 23.64 17 25 C11.39 25 5.78 25 0 25 C0 16.75 0 8.5 0 0 Z " fill="#FEFBF7" transform="translate(298,315)"/>
<path d="M0 0 C6.62916314 0.94702331 9.49688612 1.45230083 14 6 C16.74801526 10.07352851 18 13.04455143 18 18 C12.06 18 6.12 18 0 18 C0 12.06 0 6.12 0 0 Z " fill="#FFF9F3" transform="translate(268,265)"/>
<path d="M0 0 C0 5.94 0 11.88 0 18 C-5.61 18 -11.22 18 -17 18 C-17 11.70796982 -16.74545086 10.63253133 -13 6 C-8.88313072 2.00136978 -5.90328677 0 0 0 Z " fill="#FFFBF7" transform="translate(260,265)"/>
<path d="M0 0 C1.32 0 2.64 0 4 0 C4 3.3 4 6.6 4 10 C7.96 10 11.92 10 16 10 C16 6.7 16 3.4 16 0 C17.32 0 18.64 0 20 0 C20 7.92 20 15.84 20 24 C18.68 24 17.36 24 16 24 C16 20.37 16 16.74 16 13 C12.04 13 8.08 13 4 13 C4 16.63 4 20.26 4 24 C2.68 24 1.36 24 0 24 C0 16.08 0 8.16 0 0 Z " fill="#FFFFFF" transform="translate(325,316)"/>
<path d="M0 0 C5.28 0 10.56 0 16 0 C16 0.99 16 1.98 16 3 C12.04 3 8.08 3 4 3 C4 5.31 4 7.62 4 10 C7.3 10 10.6 10 14 10 C14 10.99 14 11.98 14 13 C10.7 13 7.4 13 4 13 C4 15.31 4 17.62 4 20 C8.29 20 12.58 20 17 20 C17 21.32 17 22.64 17 24 C11.39 24 5.78 24 0 24 C0 16.08 0 8.16 0 0 Z " fill="#FEFEFE" transform="translate(213,316)"/>
<path d="M0 0 C6.93 0 13.86 0 21 0 C21 1.65 21 3.3 21 5 C18.36 5 15.72 5 13 5 C13 11.6 13 18.2 13 25 C11.35 25 9.7 25 8 25 C8 18.4 8 11.8 8 5 C5.36 5 2.72 5 0 5 C0 3.35 0 1.7 0 0 Z " fill="#FEF9F3" transform="translate(129,315)"/>
<path d="M0 0 C1.98 0 3.96 0 6 0 C7.65 3.3 9.3 6.6 11 10 C13.48724903 6.68366796 15.23109915 3.70626844 17 0 C18.98 0 20.96 0 23 0 C22.04416032 1.93873142 21.08523808 3.8759433 20.125 5.8125 C19.59132812 6.89144531 19.05765625 7.97039062 18.5078125 9.08203125 C17 12 17 12 15 15 C14.54398739 17.50896686 14.54398739 17.50896686 14.375 20.1875 C14.30023438 21.08855469 14.22546875 21.98960937 14.1484375 22.91796875 C14.09945312 23.60503906 14.05046875 24.29210937 14 25 C12.35 25 10.7 25 9 25 C9.020625 24.44054687 9.04125 23.88109375 9.0625 23.3046875 C8.86216028 15.51648083 5.69260585 10.25897018 1.71484375 3.80859375 C0 1 0 1 0 0 Z " fill="#FEFAF6" transform="translate(236,315)"/>
<path d="M0 0 C-3.00413683 2.00275789 -4.66399618 2.4692694 -8.125 3.1875 C-30.83974732 8.73033308 -52.01105516 21.36933127 -70 36 C-70.55848633 36.45101074 -71.11697266 36.90202148 -71.69238281 37.36669922 C-74.0979454 39.31265072 -76.48959586 41.27307709 -78.86328125 43.2578125 C-81 45 -81 45 -84 47 C-75.41964527 26.3696389 -39.31039726 12.18145575 -20.80859375 4.30078125 C-18.93917255 3.5440355 -17.06567079 2.79726135 -15.1875 2.0625 C-13.9176123 1.55831543 -13.9176123 1.55831543 -12.62207031 1.04394531 C-8.021533 -0.65613075 -4.88526026 -1.39241717 0 0 Z " fill="#FFD195" transform="translate(198,60)"/>
<path d="M0 0 C18.88365979 0.81570885 35.81629432 5.93570329 49 20 C45.13077284 18.83513434 41.69524096 17.37281601 38.15234375 15.43554688 C26.1135255 8.90493528 13.01826058 5.09177988 0 1 C0 0.67 0 0.34 0 0 Z " fill="#FFF9F1" transform="translate(300,56)"/>
<path d="M0 0 C9.29824763 -0.53189128 17.97947415 0.99179669 27 3 C28.2065625 3.26683594 29.413125 3.53367188 30.65625 3.80859375 C41.52066867 6.46565266 51.70740368 10.67852488 62 15 C62 15.99 62 16.98 62 18 C61.47535156 17.72800781 60.95070313 17.45601562 60.41015625 17.17578125 C41.27064882 7.83867957 20.89547988 4.16289264 0 1 C0 0.67 0 0.34 0 0 Z " fill="#FFD59F" transform="translate(251,37)"/>
<path d="M0 0 C3.32526827 1.45062039 5.47907992 3.28534315 8.0625 5.8125 C15.67182543 12.81036178 24.40829528 18.29527852 33 24 C34.69676578 25.13128368 36.39338622 26.26278538 38.08984375 27.39453125 C39.39317961 28.26309521 40.69654576 29.13161371 42 30 C41.01 30.495 41.01 30.495 40 31 C37.26578681 29.6253236 34.68161896 28.19602179 32.0625 26.625 C31.29413818 26.16746338 30.52577637 25.70992676 29.73413086 25.23852539 C23.33526984 21.35089017 17.58813363 16.98753983 12 12 C11.06929687 11.18917969 10.13859375 10.37835938 9.1796875 9.54296875 C2.34317396 3.51476094 2.34317396 3.51476094 0 0 Z " fill="#FFD296" transform="translate(114,385)"/>
<path d="M0 0 C-0.54301758 0.235979 -1.08603516 0.47195801 -1.64550781 0.71508789 C-12.11714906 5.28729096 -22.32218504 9.8825194 -32 16 C-32.33 15.34 -32.66 14.68 -33 14 C-30.13808586 10.84062443 -27.59819099 9.11705543 -23.68359375 7.45703125 C-22.16668945 6.80637695 -22.16668945 6.80637695 -20.61914062 6.14257812 C-19.56919922 5.70365234 -18.51925781 5.26472656 -17.4375 4.8125 C-16.38369141 4.36197266 -15.32988281 3.91144531 -14.24414062 3.44726562 C-3.4464489 -1.1488163 -3.4464489 -1.1488163 0 0 Z " fill="#FFF6EB" transform="translate(189,64)"/>
<path d="M0 0 C5.0800102 1.48199986 9.37664349 3.70198137 13.9375 6.3125 C14.95360352 6.88000977 14.95360352 6.88000977 15.99023438 7.45898438 C20.54820984 10.04169147 24.7820751 12.89292364 29 16 C28.34 16.33 27.68 16.66 27 17 C24.49419284 15.71535821 22.10317512 14.37586871 19.6875 12.9375 C12.62482978 8.83553324 5.49077062 5.27079881 -2 2 C-1.34 1.34 -0.68 0.68 0 0 Z " fill="#FFD195" transform="translate(355,69)"/>
<path d="M0 0 C6.15234375 -0.09765625 6.15234375 -0.09765625 8 0 C9 1 9 1 9.125 3.5 C9 6 9 6 8 7 C5.32941149 7.14115161 2.67567762 7.04247107 0 7 C0 4.69 0 2.38 0 0 Z " fill="#FBC986" transform="translate(189,320)"/>
<path d="M0 0 C0.33 0 0.66 0 1 0 C1.64957631 3.49931587 2.29397258 6.99956712 2.9375 10.5 C3.11990234 11.48226563 3.30230469 12.46453125 3.49023438 13.4765625 C4.49818628 18.97448198 5.371823 24.44559282 6 30 C4.04581722 27.06872583 3.35859245 25.1094256 2.4921875 21.74609375 C2.22792969 20.72708984 1.96367188 19.70808594 1.69140625 18.65820312 C1.42199219 17.59537109 1.15257813 16.53253906 0.875 15.4375 C0.59785156 14.37080078 0.32070312 13.30410156 0.03515625 12.20507812 C-2 4.29002463 -2 4.29002463 -2 2 C-1.34 2 -0.68 2 0 2 C0 1.34 0 0.68 0 0 Z " fill="#FFEFD9" transform="translate(74,255)"/>
<path d="M0 0 C7.8822202 0.51599184 15.34458305 2.0921453 23 4 C22.67 4.99 22.34 5.98 22 7 C14.39086902 5.7205886 7.26774103 3.57243067 0 1 C0 0.67 0 0.34 0 0 Z " fill="#FFD399" transform="translate(190,430)"/>
<path d="M0 0 C0.125 2.375 0.125 2.375 0 5 C-2 7 -2 7 -4.3828125 7.1953125 C-5.28773438 7.17210937 -6.19265625 7.14890625 -7.125 7.125 C-8.49011719 7.09792969 -8.49011719 7.09792969 -9.8828125 7.0703125 C-10.58148438 7.04710937 -11.28015625 7.02390625 -12 7 C-8.96533294 3.76116573 -4.61110165 0 0 0 Z " fill="#14110E" transform="translate(249,250)"/>
<path d="M0 0 C2 2 2 2 2.22705078 3.97119141 C2.21657715 4.75671387 2.20610352 5.54223633 2.1953125 6.3515625 C2.18886719 7.20234375 2.18242187 8.053125 2.17578125 8.9296875 C2.15902344 9.81914062 2.14226562 10.70859375 2.125 11.625 C2.11597656 12.5221875 2.10695313 13.419375 2.09765625 14.34375 C2.0740497 16.56276586 2.0411231 18.78125077 2 21 C1.67 21 1.34 21 1 21 C0.67 19.35 0.34 17.7 0 16 C-0.33 16 -0.66 16 -1 16 C-0.67 10.72 -0.34 5.44 0 0 Z " fill="#FFD8A4" transform="translate(464,248)"/>
<path d="M0 0 C0.66 0 1.32 0 2 0 C2.66 2.97 3.32 5.94 4 9 C2.02 9 0.04 9 -2 9 C-1.34 6.03 -0.68 3.06 0 0 Z " fill="#FACC90" transform="translate(399,321)"/>
<path d="M0 0 C0.66 0.33 1.32 0.66 2 1 C2.59355614 3.64860427 2.74209269 6.29197322 3 9 C1.35 9 -0.3 9 -2 9 C-1.125 2.25 -1.125 2.25 0 0 Z " fill="#FACC90" transform="translate(164,321)"/>
<path d="M0 0 C3.89917968 1.61537444 6.71293772 4.27924873 9.75 7.125 C10.25660156 7.59292969 10.76320313 8.06085938 11.28515625 8.54296875 C12.52719141 9.69126541 13.76411494 10.84508672 15 12 C14.34 12.66 13.68 13.32 13 14 C10.83031809 11.85714108 8.66416525 9.71091768 6.5 7.5625 C5.87996094 6.95083984 5.25992187 6.33917969 4.62109375 5.70898438 C4.03457031 5.12568359 3.44804687 4.54238281 2.84375 3.94140625 C2.02680664 3.13231812 2.02680664 3.13231812 1.19335938 2.30688477 C0 1 0 1 0 0 Z " fill="#FFD7A2" transform="translate(386,74)"/>
<path d="M0 0 C6.64615385 3.32307692 6.64615385 3.32307692 8.4375 6.75 C8.623125 7.4925 8.80875 8.235 9 9 C5.57308643 7.76250343 2.64697231 6.5489363 0 4 C0 2.68 0 1.36 0 0 Z " fill="#FFD8A6" transform="translate(349,73)"/>
<path d="M0 0 C5.44208234 0.34013015 8.93668198 3.70296528 13 7 C12.67 7.99 12.34 8.98 12 10 C11.46890625 9.52949219 10.9378125 9.05898438 10.390625 8.57421875 C9.68421875 7.95160156 8.9778125 7.32898438 8.25 6.6875 C7.20585938 5.76517578 7.20585938 5.76517578 6.140625 4.82421875 C4.14885494 3.12685266 2.11101085 1.54522191 0 0 Z " fill="#FFF8EF" transform="translate(113,384)"/>
<path d="M0 0 C2 0 2 0 3.36328125 1.33203125 C3.90339844 1.88246094 4.44351562 2.43289062 5 3 C6.37229925 3.9314842 7.76940337 4.82734303 9.1875 5.6875 C9.90292969 6.12449219 10.61835938 6.56148438 11.35546875 7.01171875 C11.89816406 7.33785156 12.44085938 7.66398437 13 8 C12.67 8.99 12.34 9.98 12 11 C10.37327315 9.87749844 8.74867418 8.75191267 7.125 7.625 C5.76761719 6.68527344 5.76761719 6.68527344 4.3828125 5.7265625 C2 4 2 4 0 2 C0 1.34 0 0.68 0 0 Z " fill="#FFD194" transform="translate(336,64)"/>
<path d="M0 0 C0.66 0.66 1.32 1.32 2 2 C1.7578125 4.8203125 1.7578125 4.8203125 1.125 8.125 C0.92132813 9.22070312 0.71765625 10.31640625 0.5078125 11.4453125 C0.34023438 12.28835937 0.17265625 13.13140625 0 14 C-2 11 -2 11 -1.7578125 8.30078125 C-1.54898438 7.31464844 -1.34015625 6.32851562 -1.125 5.3125 C-0.92132813 4.31863281 -0.71765625 3.32476562 -0.5078125 2.30078125 C-0.34023438 1.54152344 -0.17265625 0.78226563 0 0 Z " fill="#FFD8A5" transform="translate(60,196)"/>
<path d="M0 0 C-3.48152976 2.32101984 -5.86169011 2.69903201 -10 3 C-10.66 2.34 -11.32 1.68 -12 1 C-7.53763531 -0.80619523 -4.68965706 -1.11658501 0 0 Z " fill="#FFD7A2" transform="translate(198,60)"/>
<path d="M0 0 C0.99 0.33 1.98 0.66 3 1 C0.03 3.97 -2.94 6.94 -6 10 C-6.66 9.67 -7.32 9.34 -8 9 C-5.36 6.03 -2.72 3.06 0 0 Z " fill="#FFF0DC" transform="translate(390,356)"/>
<path d="M0 0 C4.81033104 2.54664585 8.32442148 4.99027798 12 9 C7.69235185 7.43358249 3.93828536 5.31663844 0 3 C0 2.01 0 1.02 0 0 Z " fill="#FFD59D" transform="translate(365,58)"/>
<path d="M0 0 C1.75070517 0.11470137 3.50057536 0.24219028 5.25 0.375 C6.22453125 0.44460937 7.1990625 0.51421875 8.203125 0.5859375 C10.89633189 0.98465249 12.66963279 1.63507063 15 3 C11.02840314 4.08056059 8.57446843 3.85815614 4.6875 2.5625 C3.36298828 2.13130859 3.36298828 2.13130859 2.01171875 1.69140625 C1.34785156 1.46324219 0.68398438 1.23507813 0 1 C0 0.67 0 0.34 0 0 Z " fill="#FFEBD0" transform="translate(300,56)"/>
<path d="M0 0 C4.29 0.33 8.58 0.66 13 1 C11.68 1.33 10.36 1.66 9 2 C9 2.66 9 3.32 9 4 C6.03 3.01 3.06 2.02 0 1 C0 0.67 0 0.34 0 0 Z " fill="#FFF4E5" transform="translate(200,422)"/>
<path d="M0 0 C0.66 0.33 1.32 0.66 2 1 C-1 4 -4 7 -7 10 C-6.84518205 7.29068581 -6.51827919 5.53415961 -4.59765625 3.5546875 C-3.10228292 2.32320358 -1.5537076 1.1570163 0 0 Z " fill="#2D2317" transform="translate(116,234)"/>
<path d="M0 0 C1.31611677 0.95336021 2.62778961 1.91285774 3.9375 2.875 C4.66839844 3.40867188 5.39929688 3.94234375 6.15234375 4.4921875 C8 6 8 6 9 8 C8.0625 10.125 8.0625 10.125 7 12 C6.773125 11.278125 6.54625 10.55625 6.3125 9.8125 C4.75528356 6.47560763 2.61945291 4.55051994 0 2 C0 1.34 0 0.68 0 0 Z " fill="#AF8A5A" transform="translate(378,195)"/>
<path d="M0 0 C-2.97 1.65 -5.94 3.3 -9 5 C-9 4.01 -9 3.02 -9 2 C-3.375 -1.125 -3.375 -1.125 0 0 Z " fill="#FFF6EC" transform="translate(159,55)"/>
<path d="M0 0 C0.99 0.66 1.98 1.32 3 2 C-0.96 1.67 -4.92 1.34 -9 1 C-4.8085556 -1.0957222 -4.19789511 -1.29166003 0 0 Z " fill="#FFF3E4" transform="translate(309,52)"/>
</svg>
