<?xml version="1.0" encoding="UTF-8"?>
<svg version="1.1" xmlns="http://www.w3.org/2000/svg" width="500" height="500">
<path d="M0 0 C165 0 330 0 500 0 C500 165 500 330 500 500 C335 500 170 500 0 500 C0 335 0 170 0 0 Z " fill="#FEFEFE" transform="translate(0,0)"/>
<path d="M0 0 C2.375 2 2.375 2 5 5 C5.82564453 5.87591797 5.82564453 5.87591797 6.66796875 6.76953125 C11.1035688 11.55266285 15.00863615 16.63353357 18.875 21.875 C26.49720839 33.81161016 26.49720839 33.81161016 37.15234375 41.50390625 C37.82394531 41.50261719 38.49554688 41.50132812 39.1875 41.5 C43 42 43 42 44.8046875 44.15625 C45.99385267 46.08005499 47.14684142 48.02661818 48.265625 49.9921875 C49.93933682 52.89479584 51.75671692 55.48306389 53.8125 58.125 C54.65748047 59.21167969 54.65748047 59.21167969 55.51953125 60.3203125 C56.91265029 62.11269536 56.91265029 62.11269536 59 63 C59.33 61.68 59.66 60.36 60 59 C60.66 59 61.32 59 62 59 C61.9690625 57.205625 61.9690625 57.205625 61.9375 55.375 C61.93117429 51.81995131 62.30111125 48.49444376 63 45 C63.33 45 63.66 45 64 45 C64.74111301 68.16664367 57.43884474 88.48869491 45 108 C44.67 108.33 44.34 108.66 44 109 C43.90145345 110.64340867 43.87027589 112.2911461 43.875 113.9375 C43.87242187 114.83339844 43.86984375 115.72929687 43.8671875 116.65234375 C43.84578587 119.02155555 43.84578587 119.02155555 45 121 C44.34 121 43.68 121 43 121 C43 121.66 43 122.32 43 123 C42.01 123 41.02 123 40 123 C39.67 120.36 39.34 117.72 39 115 C38.608125 115.763125 38.21625 116.52625 37.8125 117.3125 C35.77861497 120.32826056 34.09846362 121.17737434 31 123 C29.54723423 124.2110857 28.11042651 125.44149153 26.6875 126.6875 C17.96514776 133.7752285 7.49760955 138.20075378 -3 142 C7.31054959 139.51783066 16.71226289 136.61656594 26.046875 131.50390625 C27.67240463 130.62061226 29.33356458 129.80345993 31 129 C31.66 129.33 32.32 129.66 33 130 C15.3453947 141.14423024 -0.67465373 145.18649511 -21.41577148 145.24023438 C-23.66493251 145.24990299 -25.91316321 145.28098077 -28.16210938 145.3125 C-37.03464725 145.3774797 -45.51244832 144.943147 -54 142 C-54.99 141.01 -54.99 141.01 -56 140 C-53.03 140.33 -50.06 140.66 -47 141 C-49.54023648 139.87167643 -52.08208838 138.74726572 -54.625 137.625 C-55.69427734 137.14933594 -55.69427734 137.14933594 -56.78515625 136.6640625 C-60.80459396 134.89403488 -64.80107481 133.31133626 -69 132 C-69 130.68 -69 129.36 -69 128 C-66.31739596 129.02570155 -63.82440629 130.09800579 -61.3125 131.5 C-53.47569382 135.04874242 -45.48869512 135.29048767 -37 135 C-38.12535156 134.79246094 -39.25070313 134.58492187 -40.41015625 134.37109375 C-48.42253393 132.80036603 -56.0477611 130.9598034 -63.5 127.5625 C-64.127854 127.28656006 -64.75570801 127.01062012 -65.40258789 126.72631836 C-68.39726787 125.27921628 -69.82270578 124.37199155 -71.2734375 121.328125 C-71.51320312 120.55984375 -71.75296875 119.7915625 -72 119 C-74.04105639 118.11306697 -74.04105639 118.11306697 -76 118 C-76 119.65 -76 121.3 -76 123 C-76.99 123 -77.98 123 -79 123 C-80.82421875 121.1015625 -80.82421875 121.1015625 -82.6875 118.625 C-83.31011719 117.81289062 -83.93273437 117.00078125 -84.57421875 116.1640625 C-86 114 -86 114 -86 112 C-86.66 112 -87.32 112 -88 112 C-87.71125 112.62648438 -87.4225 113.25296875 -87.125 113.8984375 C-86.75375 114.71570313 -86.3825 115.53296875 -86 116.375 C-85.62875 117.18710938 -85.2575 117.99921875 -84.875 118.8359375 C-84 121 -84 121 -84 123 C-85.485 122.505 -85.485 122.505 -87 122 C-87 121.01 -87 120.02 -87 119 C-90.465 119.495 -90.465 119.495 -94 120 C-94.33 120.99 -94.66 121.98 -95 123 C-95.99 122.67 -96.98 122.34 -98 122 C-97.54367188 121.03578125 -97.08734375 120.0715625 -96.6171875 119.078125 C-96.03563383 117.80245889 -95.4549498 116.52639607 -94.875 115.25 C-94.42060547 114.29867187 -94.42060547 114.29867187 -93.95703125 113.328125 C-92.29488286 109.77191829 -92.29488286 109.77191829 -92.51171875 105.9765625 C-93.00285156 105.32429688 -93.49398437 104.67203125 -94 104 C-94.75152344 102.93007812 -95.50304687 101.86015625 -96.27734375 100.7578125 C-97.6046922 98.93642852 -98.94019521 97.12135147 -100.27929688 95.30859375 C-103.57869355 90.77499654 -106.57853251 86.58478112 -107.5 80.93359375 C-106.81040779 76.88762696 -105.11432383 75.67328506 -102 73.0625 C-101.49670166 72.62993896 -100.99340332 72.19737793 -100.47485352 71.75170898 C-98.99688022 70.48504281 -97.49876038 69.24200063 -96 68 C-86.2048986 59.78132541 -78.0919731 50.63795965 -71 40 C-69.73414837 38.16322345 -68.46338626 36.32982041 -67.1875 34.5 C-66.62417969 33.6853125 -66.06085938 32.870625 -65.48046875 32.03125 C-64 30 -64 30 -62 28 C-56.21846054 27.31981889 -52.52424975 28.5830841 -48 32 C-46.64645917 33.31281483 -45.30887458 34.64264858 -44 36 C-38.59590807 29.53260294 -33.57735489 23.11940903 -29.01953125 16.01953125 C-27 14 -27 14 -24.05078125 13.9609375 C-23.04402344 13.97382813 -22.03726563 13.98671875 -21 14 C-18.489854 12.2513733 -18.489854 12.2513733 -16.375 9.8125 C-15.60800781 8.99394531 -14.84101563 8.17539063 -14.05078125 7.33203125 C-11.95350008 4.94712295 -9.95510579 2.50253541 -8 0 C-4.99054157 -1.50472922 -3.20590237 -0.88005163 0 0 Z " fill="#FBC783" transform="translate(278,127)"/>
<path d="M0 0 C1.25103516 -0.020625 2.50207031 -0.04125 3.79101562 -0.0625 C23.83813121 -0.14598617 43.59810939 8.13146932 58.8125 21.25 C58.8125 21.91 58.8125 22.57 58.8125 23.25 C59.39644531 23.51167969 59.98039063 23.77335937 60.58203125 24.04296875 C77.97197511 33.45363889 89.4361562 61.24705766 95.0078125 79.12109375 C96.44734478 84.71849839 96.92954666 89.84305378 96.875 95.625 C96.86597656 96.87023437 96.85695313 98.11546875 96.84765625 99.3984375 C96.83025391 100.80996094 96.83025391 100.80996094 96.8125 102.25 C96.4825 102.25 96.1525 102.25 95.8125 102.25 C95.70292969 101.15042969 95.59335937 100.05085938 95.48046875 98.91796875 C94.58498771 90.41282468 93.35461141 82.45408682 90.8125 74.25 C91.1425 79.53 91.4725 84.81 91.8125 90.25 C90.8225 90.745 90.8225 90.745 89.8125 91.25 C89.72613281 90.36441406 89.63976562 89.47882813 89.55078125 88.56640625 C87.12907394 67.21539041 80.81198827 48.35327916 63.8125 34.25 C63.24015625 33.755 62.6678125 33.26 62.078125 32.75 C55.42460991 27.33297887 47.50629418 23.92882877 39.8125 20.25 C40.32296875 20.61609375 40.8334375 20.9821875 41.359375 21.359375 C64.23767163 38.39640441 78.990713 61.61527097 83.21484375 89.94873047 C83.90411208 95.37091012 84.4036041 100.800089 84.8125 106.25 C84.1525 106.25 83.4925 106.25 82.8125 106.25 C82.4825 107.57 82.1525 108.89 81.8125 110.25 C77.8956684 108.73747351 76.20343212 106.44809724 73.8125 103.0625 C73.11125 102.08152344 72.41 101.10054688 71.6875 100.08984375 C70.16975127 97.79108682 68.96939384 95.60922293 67.8125 93.125 C67.1525 92.17625 66.4925 91.2275 65.8125 90.25 C63.86164578 90.02240034 61.906966 89.804752 59.9453125 89.70703125 C51.9250576 87.9884052 45.89686302 76.32964524 41.16845703 70.03808594 C38.79737098 66.9113603 36.36643688 63.83185932 33.9375 60.75 C33.48528076 60.17491699 33.03306152 59.59983398 32.56713867 59.00732422 C31.31772327 57.41987008 30.06518922 55.83487198 28.8125 54.25 C28.08546875 53.31929687 27.3584375 52.38859375 26.609375 51.4296875 C24.71162743 49.12763718 23.6650271 48.08897856 20.8125 47.25 C16.60585439 47.38588883 15.08902217 47.9927965 11.9609375 50.90234375 C11.0219994 51.98502378 10.09772627 53.0805723 9.1875 54.1875 C3.39792654 61.06261848 3.39792654 61.06261848 -0.1875 62.25 C-2.4375 61.875 -2.4375 61.875 -4.1875 61.25 C-4.45304687 61.82492188 -4.71859375 62.39984375 -4.9921875 62.9921875 C-6.24042483 65.34996912 -7.65526241 67.28610983 -9.3125 69.375 C-9.92480469 70.14972656 -10.53710938 70.92445313 -11.16796875 71.72265625 C-11.83441406 72.55667969 -12.50085938 73.39070313 -13.1875 74.25 C-13.92613281 75.17683594 -14.66476563 76.10367188 -15.42578125 77.05859375 C-17.34255153 79.45881231 -19.2631735 81.85583794 -21.1875 84.25 C-23.1875 82.875 -23.1875 82.875 -25.1875 81.25 C-25.1875 80.59 -25.1875 79.93 -25.1875 79.25 C-26.363125 78.7859375 -26.363125 78.7859375 -27.5625 78.3125 C-30.1875 77.25 -30.1875 77.25 -32.1875 76.25 C-35.47263122 75.41352514 -35.47263122 75.41352514 -39.1875 76.25 C-42.6144524 79.46184067 -45.01852695 83.42559119 -47.5390625 87.359375 C-56.15785408 100.76638412 -67.2024163 112.38829466 -79.83203125 122.0390625 C-82.30414358 124.35948635 -83.21327138 126.04011379 -84.1875 129.25 C-86.29587598 126.08743603 -87.16650679 123.44199627 -88.25 119.8125 C-88.59160156 118.67941406 -88.93320313 117.54632813 -89.28515625 116.37890625 C-89.58292969 115.34636719 -89.88070312 114.31382812 -90.1875 113.25 C-90.36909668 112.64631592 -90.55069336 112.04263184 -90.73779297 111.4206543 C-91.30082174 108.7030165 -91.29931622 106.16597871 -91.28515625 103.390625 C-91.28032227 101.71806641 -91.28032227 101.71806641 -91.27539062 100.01171875 C-91.26701172 98.85285156 -91.25863281 97.69398438 -91.25 96.5 C-91.24548828 95.32566406 -91.24097656 94.15132813 -91.23632812 92.94140625 C-91.22455094 90.04421928 -91.20810326 87.14713546 -91.1875 84.25 C-90.8575 84.25 -90.5275 84.25 -90.1875 84.25 C-90.13215088 84.87044189 -90.07680176 85.49088379 -90.01977539 86.13012695 C-89.76689652 88.94126637 -89.50851166 91.75187322 -89.25 94.5625 C-89.16298828 95.53896484 -89.07597656 96.51542969 -88.98632812 97.52148438 C-88.89931641 98.45927734 -88.81230469 99.39707031 -88.72265625 100.36328125 C-88.644104 101.22735596 -88.56555176 102.09143066 -88.48461914 102.98168945 C-88.23962023 105.41086712 -88.23962023 105.41086712 -87.1875 108.25 C-87.21368408 107.52111572 -87.23986816 106.79223145 -87.2668457 106.04125977 C-88.10563563 79.07894148 -83.68465874 58.58701823 -65.1875 38.25 C-64.57519531 37.54488281 -63.96289062 36.83976562 -63.33203125 36.11328125 C-56.8583264 29.08744806 -48.57058232 24.39576219 -40.38671875 19.61328125 C-38.0917714 18.3065676 -38.0917714 18.3065676 -36.1875 16.25 C-19.39549297 8.70046006 -0.13760584 10.77823998 17.8125 11.25 C17.8125 10.59 17.8125 9.93 17.8125 9.25 C10.02976112 7.20062675 2.87760168 5.75844753 -5.1875 6.25 C-5.1875 5.59 -5.1875 4.93 -5.1875 4.25 C-6.58288254 4.19527912 -7.97890897 4.15688462 -9.375 4.125 C-10.54095703 4.09019531 -10.54095703 4.09019531 -11.73046875 4.0546875 C-14.56262454 4.27981912 -16.56294492 5.17088778 -19.1875 6.25 C-20.97377051 6.65725355 -22.7606243 7.06267018 -24.5534668 7.43994141 C-43.16095054 11.46941474 -61.91414042 23.15894911 -72.48828125 39.2265625 C-73.82273175 41.50725972 -74.99700017 43.85500444 -76.14453125 46.234375 C-77.14583071 48.16947059 -78.2714992 49.89076756 -79.5 51.6875 C-82.97796861 57.14252814 -85.01541285 63.18664183 -87.1875 69.25 C-87.8475 69.25 -88.5075 69.25 -89.1875 69.25 C-89.6505237 70.87366976 -90.10759098 72.49903806 -90.5625 74.125 C-90.81773437 75.02992188 -91.07296875 75.93484375 -91.3359375 76.8671875 C-93.44870441 85.26010557 -94.50709801 93.01674734 -94.4375 101.6875 C-94.44523438 102.64720703 -94.45296875 103.60691406 -94.4609375 104.59570312 C-94.44490061 110.5493981 -93.82083599 116.04724711 -92.51855469 121.85961914 C-92.17626336 124.33113415 -92.41054902 125.90111798 -93.1875 128.25 C-95.65161728 119.19143551 -96.70845286 110.75341992 -96.625 101.375 C-96.61525146 100.14193115 -96.60550293 98.9088623 -96.59545898 97.63842773 C-96.41759454 88.50825415 -95.55933794 80.80581338 -92.1875 72.25 C-91.71231934 71.02676025 -91.71231934 71.02676025 -91.22753906 69.77880859 C-83.26456876 49.5277101 -71.56052853 28.36051466 -52.85546875 16.05859375 C-51.97503906 15.46175781 -51.09460938 14.86492187 -50.1875 14.25 C-50.1875 13.59 -50.1875 12.93 -50.1875 12.25 C-47.04345863 10.97470247 -43.89694782 9.70560671 -40.75 8.4375 C-39.87150391 8.08107422 -38.99300781 7.72464844 -38.08789062 7.35742188 C-25.0572436 2.11631292 -14.13144284 0.05735745 0 0 Z " fill="#FEC984" transform="translate(255.1875,79.75)"/>
<path d="M0 0 C2.375 2 2.375 2 5 5 C5.82564453 5.87591797 5.82564453 5.87591797 6.66796875 6.76953125 C11.1035688 11.55266285 15.00863615 16.63353357 18.875 21.875 C26.49720839 33.81161016 26.49720839 33.81161016 37.15234375 41.50390625 C37.82394531 41.50261719 38.49554688 41.50132812 39.1875 41.5 C43 42 43 42 44.76953125 44.12109375 C45.94663944 46.03688383 47.08886805 47.97444925 48.19921875 49.9296875 C51.41874217 55.41894001 55.49831957 60.49831957 60 65 C60 65.99 60 66.98 60 68 C54.69627505 67.55537635 51.88187081 65.78058085 47.75 62.5 C44.05051142 59.474876 44.05051142 59.474876 40 57 C40 58.32 40 59.64 40 61 C31.94214494 59.86686413 25.85014871 48.6638717 21.1875 42.5 C13.63197118 32.38127113 6.38595578 21.90127805 0 11 C-0.33 11.33 -0.66 11.66 -1 12 C-0.79351085 23.76988133 4.84378398 40.00578966 13.375 48.3125 C13.91125 48.869375 14.4475 49.42625 15 50 C14.75 52.25 14.75 52.25 14 54 C5.6043451 53.45245729 -1.77163517 49.60552835 -8 44 C-8.28875 44.721875 -8.5775 45.44375 -8.875 46.1875 C-9.56127983 47.90319957 -10.28232116 49.60616015 -11.0625 51.28125 C-12.15424697 54.4473162 -12.19839418 56.97306502 -12.125 60.3125 C-12.10695313 61.38113281 -12.08890625 62.44976562 -12.0703125 63.55078125 C-12.04710937 64.35902344 -12.02390625 65.16726562 -12 66 C-9.1628485 67.19595537 -9.1628485 67.19595537 -6 68 C-5.01 67.34 -4.02 66.68 -3 66 C0.56724371 66.32362623 2.86483362 68.15913601 5.6875 70.25 C10.27993409 73.55955502 14.99026733 76.37412563 20 79 C19.835 79.61875 19.67 80.2375 19.5 80.875 C18.92365356 82.96063386 18.92365356 82.96063386 19 85 C20.61358341 86.32378631 20.61358341 86.32378631 22.71875 87.6015625 C23.48574219 88.09140625 24.25273437 88.58125 25.04296875 89.0859375 C26.25919922 89.84777344 26.25919922 89.84777344 27.5 90.625 C28.71623047 91.3984375 28.71623047 91.3984375 29.95703125 92.1875 C31.9674397 93.46470066 33.98180397 94.73515437 36 96 C35.67 96.66 35.34 97.32 35 98 C28.7271004 98.85722904 24.92212238 95.95207426 19.875 92.6875 C19.07707031 92.18798828 18.27914062 91.68847656 17.45703125 91.17382812 C11.5679032 87.46239935 11.5679032 87.46239935 8.97094727 85.34790039 C5.90911913 83.25396342 2.64016823 83.72936113 -0.9375 83.75 C-11.50506858 83.48281057 -18.63114 79.39337803 -27 73 C-29.75471394 70.77767869 -29.75471394 70.77767869 -32.5625 70.9375 C-35.6493684 72.28305802 -38.27318404 74.03415593 -41 76 C-39.865625 76.433125 -38.73125 76.86625 -37.5625 77.3125 C-36.386875 77.869375 -35.21125 78.42625 -34 79 C-33.67 79.99 -33.34 80.98 -33 82 C-34.12109375 84.14453125 -34.12109375 84.14453125 -36 86 C-38.41015625 86.57421875 -38.41015625 86.57421875 -41.0625 86.6875 C-44.66965162 86.80704459 -44.66965162 86.80704459 -48 88 C-49.11761719 87.87431641 -49.11761719 87.87431641 -50.2578125 87.74609375 C-58.80585845 86.82607246 -63.66526693 89.62881664 -70.39111328 94.44311523 C-74.42222132 97.28148895 -76.865134 98.63589672 -82 98 C-82.495 97.01 -82.495 97.01 -83 96 C-77.39 92.37 -71.78 88.74 -66 85 C-67.52625 83.68 -69.0525 82.36 -70.625 81 C-71.48351562 80.2575 -72.34203125 79.515 -73.2265625 78.75 C-76.50953642 76.6784897 -78.18601135 76.46252734 -82 77 C-83.88283021 78.04725298 -83.88283021 78.04725298 -85.5 79.5 C-91.06985389 83.33604723 -97.50749923 82.59642396 -104 82 C-104.66 81.67 -105.32 81.34 -106 81 C-105.89379955 78.36429803 -105.50723373 76.56363596 -103.71777344 74.57519531 C-101.9764971 73.03607793 -100.19265964 71.5731036 -98.375 70.125 C-97.08319884 69.05381342 -95.79281582 67.98091416 -94.50390625 66.90625 C-93.88918457 66.39835937 -93.27446289 65.89046875 -92.64111328 65.3671875 C-82.10028334 56.58577606 -73.9936494 44.91378582 -66.65625 33.42578125 C-65.21526745 31.31528558 -63.98521311 29.59861898 -62 28 C-56.25363601 27.226451 -52.4968841 28.60375187 -48 32 C-46.64645917 33.31281483 -45.30887458 34.64264858 -44 36 C-38.59590807 29.53260294 -33.57735489 23.11940903 -29.01953125 16.01953125 C-27 14 -27 14 -24.05078125 13.9609375 C-23.04402344 13.97382813 -22.03726563 13.98671875 -21 14 C-18.489854 12.2513733 -18.489854 12.2513733 -16.375 9.8125 C-15.60800781 8.99394531 -14.84101563 8.17539063 -14.05078125 7.33203125 C-11.95350008 4.94712295 -9.95510579 2.50253541 -8 0 C-4.99054157 -1.50472922 -3.20590237 -0.88005163 0 0 Z " fill="#050402" transform="translate(278,127)"/>
<path d="M0 0 C1.79244141 0.01740234 1.79244141 0.01740234 3.62109375 0.03515625 C5.41740234 0.04869141 5.41740234 0.04869141 7.25 0.0625 C8.17683594 0.07410156 9.10367188 0.08570312 10.05859375 0.09765625 C8.73859375 0.42765625 7.41859375 0.75765625 6.05859375 1.09765625 C6.05859375 1.75765625 6.05859375 2.41765625 6.05859375 3.09765625 C6.71859375 2.76765625 7.37859375 2.43765625 8.05859375 2.09765625 C15.60144072 1.38606691 21.96776428 3.67639741 29.05859375 6.09765625 C29.05859375 6.75765625 29.05859375 7.41765625 29.05859375 8.09765625 C30.04859375 8.59265625 30.04859375 8.59265625 31.05859375 9.09765625 C30.00172363 9.07147217 28.94485352 9.04528809 27.85595703 9.01831055 C23.84153399 8.92611258 19.8271986 8.86980819 15.81201172 8.82299805 C14.09179834 8.79823183 12.37168566 8.76440836 10.65185547 8.72045898 C-9.13347932 8.09916664 -9.13347932 8.09916664 -26.75366211 15.66088867 C-27.14561768 16.13502197 -27.53757324 16.60915527 -27.94140625 17.09765625 C-30.06831912 18.29846991 -32.21740607 19.46027823 -34.37890625 20.59765625 C-53.49880752 31.13575336 -67.12598248 49.80829832 -73.56005859 70.52734375 C-76.72021537 83.11179028 -75.32444127 97.21942975 -74.94140625 110.09765625 C-77.21614902 106.68554209 -77.50770269 104.44080335 -78.06640625 100.41015625 C-78.23398438 99.23066406 -78.4015625 98.05117187 -78.57421875 96.8359375 C-78.69539062 95.93230469 -78.8165625 95.02867187 -78.94140625 94.09765625 C-80.27186276 113.94363249 -71.90438783 131.59823662 -59.7265625 146.7421875 C-57.94140625 149.09765625 -57.94140625 149.09765625 -56.94140625 152.09765625 C-57.86344334 154.46288183 -58.8583959 156.80167432 -59.94140625 159.09765625 C-62.40940672 157.9459227 -63.9892419 157.0498206 -65.94140625 155.09765625 C-67.59140625 154.76765625 -69.24140625 154.43765625 -70.94140625 154.09765625 C-70.94140625 158.38765625 -70.94140625 162.67765625 -70.94140625 167.09765625 C-71.60140625 167.09765625 -72.26140625 167.09765625 -72.94140625 167.09765625 C-72.94140625 162.47765625 -72.94140625 157.85765625 -72.94140625 153.09765625 C-74.59140625 153.09765625 -76.24140625 153.09765625 -77.94140625 153.09765625 C-77.94140625 152.43765625 -77.94140625 151.77765625 -77.94140625 151.09765625 C-75.63140625 150.76765625 -73.32140625 150.43765625 -70.94140625 150.09765625 C-71.5446875 149.25203125 -72.14796875 148.40640625 -72.76953125 147.53515625 C-81.28841841 135.48894515 -81.28841841 135.48894515 -83.94140625 129.09765625 C-83.44640625 128.10765625 -83.44640625 128.10765625 -82.94140625 127.09765625 C-81.62140625 129.07765625 -80.30140625 131.05765625 -78.94140625 133.09765625 C-79.23789063 132.43507812 -79.534375 131.7725 -79.83984375 131.08984375 C-86.72043677 112.40000596 -87.22626429 85.89826214 -78.80859375 67.640625 C-78.52242187 67.13144531 -78.23625 66.62226563 -77.94140625 66.09765625 C-77.28140625 66.09765625 -76.62140625 66.09765625 -75.94140625 66.09765625 C-75.83441406 65.23269531 -75.72742188 64.36773437 -75.6171875 63.4765625 C-74.90708544 59.92605221 -73.76949268 57.25402836 -72.12890625 54.03515625 C-71.62746094 53.03355469 -71.12601563 52.03195313 -70.609375 51 C-68.94140625 48.09765625 -68.94140625 48.09765625 -66.8046875 45.4765625 C-64.94599869 43.10351955 -64.59257056 41.93408384 -63.94140625 39.09765625 C-54.32744512 23.00583896 -37.02396779 9.49123098 -18.82519531 4.51953125 C-15.02221919 3.56918855 -11.20421403 2.71354419 -7.37109375 1.89453125 C-3.91374277 1.09122874 -3.40476065 0.11303986 0 0 Z " fill="#FEFAF4" transform="translate(243.94140625,82.90234375)"/>
<path d="M0 0 C2.58990277 1.29495138 2.94702057 2.56247378 4.25 5.125 C8.93331442 13.71786385 15.25590176 19.10775134 23 25 C26.07930989 23.85433083 28.22691794 22.82734505 30.875 20.8125 C34 19 34 19 37.625 19.0625 C40.87117513 19.96421531 42.45232619 20.90726794 45 23 C45.99 23 46.98 23 48 23 C48 23.99 48 24.98 48 26 C50.8371515 27.19595537 50.8371515 27.19595537 54 28 C54.99 27.34 55.98 26.68 57 26 C60.56724371 26.32362623 62.86483362 28.15913601 65.6875 30.25 C70.27993409 33.55955502 74.99026733 36.37412563 80 39 C79.835 39.61875 79.67 40.2375 79.5 40.875 C78.92365356 42.96063386 78.92365356 42.96063386 79 45 C80.61358341 46.32378631 80.61358341 46.32378631 82.71875 47.6015625 C83.48574219 48.09140625 84.25273437 48.58125 85.04296875 49.0859375 C86.25919922 49.84777344 86.25919922 49.84777344 87.5 50.625 C88.71623047 51.3984375 88.71623047 51.3984375 89.95703125 52.1875 C91.9674397 53.46470066 93.98180397 54.73515437 96 56 C95.505 56.99 95.505 56.99 95 58 C88.7271004 58.85722904 84.92212238 55.95207426 79.875 52.6875 C79.07707031 52.18798828 78.27914062 51.68847656 77.45703125 51.17382812 C71.5679032 47.46239935 71.5679032 47.46239935 68.97094727 45.34790039 C65.90911913 43.25396342 62.64016823 43.72936113 59.0625 43.75 C48.49493142 43.48281057 41.36886 39.39337803 33 33 C30.24528606 30.77767869 30.24528606 30.77767869 27.4375 30.9375 C24.3506316 32.28305802 21.72681596 34.03415593 19 36 C20.134375 36.433125 21.26875 36.86625 22.4375 37.3125 C23.613125 37.869375 24.78875 38.42625 26 39 C26.33 39.99 26.66 40.98 27 42 C25.87890625 44.14453125 25.87890625 44.14453125 24 46 C21.58984375 46.57421875 21.58984375 46.57421875 18.9375 46.6875 C15.33034838 46.80704459 15.33034838 46.80704459 12 48 C11.25492188 47.91621094 10.50984375 47.83242187 9.7421875 47.74609375 C1.19414155 46.82607246 -3.66526693 49.62881664 -10.39111328 54.44311523 C-14.42222132 57.28148895 -16.865134 58.63589672 -22 58 C-22.33 57.34 -22.66 56.68 -23 56 C-22.45698242 55.64808594 -21.91396484 55.29617187 -21.35449219 54.93359375 C-18.81914559 53.28985656 -16.28453369 51.64499035 -13.75 50 C-12.84008301 49.41001221 -11.93016602 48.82002441 -10.99267578 48.2121582 C-4.98399492 44.30966239 0.97712738 40.3499904 6.8828125 36.29296875 C9 35 9 35 11 35 C10.01 33.35 9.02 31.7 8 30 C10.31 29.67 12.62 29.34 15 29 C13.3814031 25.33640165 11.09453439 22.4506957 8.625 19.3125 C4.03189998 13.33147101 0 7.72060484 0 0 Z " fill="#496675" transform="translate(218,167)"/>
<path d="M0 0 C1.25103516 -0.020625 2.50207031 -0.04125 3.79101562 -0.0625 C23.83813121 -0.14598617 43.59810939 8.13146932 58.8125 21.25 C58.8125 21.91 58.8125 22.57 58.8125 23.25 C59.39644531 23.51167969 59.98039063 23.77335937 60.58203125 24.04296875 C77.97197511 33.45363889 89.4361562 61.24705766 95.0078125 79.12109375 C96.44734478 84.71849839 96.92954666 89.84305378 96.875 95.625 C96.86597656 96.87023437 96.85695313 98.11546875 96.84765625 99.3984375 C96.83025391 100.80996094 96.83025391 100.80996094 96.8125 102.25 C96.4825 102.25 96.1525 102.25 95.8125 102.25 C95.70292969 101.15042969 95.59335937 100.05085938 95.48046875 98.91796875 C94.58498771 90.41282468 93.35461141 82.45408682 90.8125 74.25 C91.1425 79.53 91.4725 84.81 91.8125 90.25 C90.8225 90.745 90.8225 90.745 89.8125 91.25 C89.72613281 90.36441406 89.63976562 89.47882813 89.55078125 88.56640625 C87.13829024 67.2966461 80.8590912 48.22820479 63.8125 34.25 C61.78382413 32.6886034 59.73637846 31.16064251 57.66796875 29.65234375 C55.8125 28.25 55.8125 28.25 53 25.6875 C44.79744951 18.81923106 32.76762806 15.86722857 22.8125 12.25 C22.14621582 12.00685059 21.47993164 11.76370117 20.79345703 11.51318359 C10.43898098 7.49836193 10.43898098 7.49836193 -0.4375 6.1875 C-1.32953125 6.19652344 -2.2215625 6.20554687 -3.140625 6.21484375 C-3.81609375 6.22644531 -4.4915625 6.23804687 -5.1875 6.25 C-5.1875 5.59 -5.1875 4.93 -5.1875 4.25 C-6.58288254 4.19527912 -7.97890897 4.15688462 -9.375 4.125 C-10.54095703 4.09019531 -10.54095703 4.09019531 -11.73046875 4.0546875 C-14.56262454 4.27981912 -16.56294492 5.17088778 -19.1875 6.25 C-20.97377051 6.65725355 -22.7606243 7.06267018 -24.5534668 7.43994141 C-43.16095054 11.46941474 -61.91414042 23.15894911 -72.48828125 39.2265625 C-73.82273175 41.50725972 -74.99700017 43.85500444 -76.14453125 46.234375 C-77.14583071 48.16947059 -78.2714992 49.89076756 -79.5 51.6875 C-82.97796861 57.14252814 -85.01541285 63.18664183 -87.1875 69.25 C-87.8475 69.25 -88.5075 69.25 -89.1875 69.25 C-89.6505237 70.87366976 -90.10759098 72.49903806 -90.5625 74.125 C-90.81773437 75.02992188 -91.07296875 75.93484375 -91.3359375 76.8671875 C-93.44870441 85.26010557 -94.50709801 93.01674734 -94.4375 101.6875 C-94.44523438 102.64720703 -94.45296875 103.60691406 -94.4609375 104.59570312 C-94.44490061 110.5493981 -93.82083599 116.04724711 -92.51855469 121.85961914 C-92.17626336 124.33113415 -92.41054902 125.90111798 -93.1875 128.25 C-95.65161728 119.19143551 -96.70845286 110.75341992 -96.625 101.375 C-96.61525146 100.14193115 -96.60550293 98.9088623 -96.59545898 97.63842773 C-96.41759454 88.50825415 -95.55933794 80.80581338 -92.1875 72.25 C-91.71231934 71.02676025 -91.71231934 71.02676025 -91.22753906 69.77880859 C-83.26456876 49.5277101 -71.56052853 28.36051466 -52.85546875 16.05859375 C-51.97503906 15.46175781 -51.09460938 14.86492187 -50.1875 14.25 C-50.1875 13.59 -50.1875 12.93 -50.1875 12.25 C-47.04345863 10.97470247 -43.89694782 9.70560671 -40.75 8.4375 C-39.87150391 8.08107422 -38.99300781 7.72464844 -38.08789062 7.35742188 C-25.0572436 2.11631292 -14.13144284 0.05735745 0 0 Z " fill="#FFFBF7" transform="translate(255.1875,79.75)"/>
<path d="M0 0 C1.79244141 0.01740234 1.79244141 0.01740234 3.62109375 0.03515625 C5.41740234 0.04869141 5.41740234 0.04869141 7.25 0.0625 C8.17683594 0.07410156 9.10367188 0.08570312 10.05859375 0.09765625 C8.73859375 0.42765625 7.41859375 0.75765625 6.05859375 1.09765625 C6.05859375 1.75765625 6.05859375 2.41765625 6.05859375 3.09765625 C6.71859375 2.76765625 7.37859375 2.43765625 8.05859375 2.09765625 C15.60144072 1.38606691 21.96776428 3.67639741 29.05859375 6.09765625 C29.05859375 6.75765625 29.05859375 7.41765625 29.05859375 8.09765625 C30.04859375 8.59265625 30.04859375 8.59265625 31.05859375 9.09765625 C30.00172363 9.07147217 28.94485352 9.04528809 27.85595703 9.01831055 C23.84153399 8.92611258 19.8271986 8.86980819 15.81201172 8.82299805 C14.09179834 8.79823183 12.37168566 8.76440836 10.65185547 8.72045898 C-9.13595721 8.09807122 -9.13595721 8.09807122 -26.75463867 15.6640625 C-27.14627197 16.13714844 -27.53790527 16.61023438 -27.94140625 17.09765625 C-29.97413267 18.21606396 -32.04045676 19.27461618 -34.12890625 20.28515625 C-35.21558594 20.81496094 -36.30226562 21.34476563 -37.421875 21.890625 C-38.25332031 22.28894531 -39.08476562 22.68726562 -39.94140625 23.09765625 C-39.94140625 22.43765625 -39.94140625 21.77765625 -39.94140625 21.09765625 C-44.98654387 23.62022506 -48.0141157 26.10437042 -51.53125 30.484375 C-54.17870048 33.51317569 -57.19486095 34.84880782 -60.94140625 36.09765625 C-54.4496826 21.59064116 -37.27605613 11.4321973 -22.98876953 5.80859375 C-17.85642999 4.02641241 -12.54508323 2.91295709 -7.23046875 1.82421875 C-3.81842265 1.07048885 -3.38700177 0.11245026 0 0 Z " fill="#FFFAF4" transform="translate(243.94140625,82.90234375)"/>
<path d="M0 0 C1.25103516 -0.020625 2.50207031 -0.04125 3.79101562 -0.0625 C21.18750442 -0.13494764 35.55812174 5.5132495 49.8125 15.25 C49.1525 15.58 48.4925 15.91 47.8125 16.25 C45.32140477 15.25536487 42.92471763 14.20040341 40.5 13.0625 C26.71909206 6.80863868 14.35886277 4.07051531 -0.75 4.0625 C-1.96880859 4.05025391 -3.18761719 4.03800781 -4.44335938 4.02539062 C-6.20583008 4.02249023 -6.20583008 4.02249023 -8.00390625 4.01953125 C-9.07068604 4.01542236 -10.13746582 4.01131348 -11.23657227 4.00708008 C-14.28899134 4.25835475 -16.40647139 5.01466727 -19.1875 6.25 C-20.97377051 6.65725355 -22.7606243 7.06267018 -24.5534668 7.43994141 C-43.16095054 11.46941474 -61.91414042 23.15894911 -72.48828125 39.2265625 C-73.82273175 41.50725972 -74.99700017 43.85500444 -76.14453125 46.234375 C-77.14583071 48.16947059 -78.2714992 49.89076756 -79.5 51.6875 C-82.97796861 57.14252814 -85.01541285 63.18664183 -87.1875 69.25 C-87.8475 69.25 -88.5075 69.25 -89.1875 69.25 C-89.6505237 70.87366976 -90.10759098 72.49903806 -90.5625 74.125 C-90.81773437 75.02992188 -91.07296875 75.93484375 -91.3359375 76.8671875 C-93.44870441 85.26010557 -94.50709801 93.01674734 -94.4375 101.6875 C-94.44523438 102.64720703 -94.45296875 103.60691406 -94.4609375 104.59570312 C-94.44490061 110.5493981 -93.82083599 116.04724711 -92.51855469 121.85961914 C-92.17626336 124.33113415 -92.41054902 125.90111798 -93.1875 128.25 C-95.65161728 119.19143551 -96.70845286 110.75341992 -96.625 101.375 C-96.61525146 100.14193115 -96.60550293 98.9088623 -96.59545898 97.63842773 C-96.41759454 88.50825415 -95.55933794 80.80581338 -92.1875 72.25 C-91.71231934 71.02676025 -91.71231934 71.02676025 -91.22753906 69.77880859 C-83.26456876 49.5277101 -71.56052853 28.36051466 -52.85546875 16.05859375 C-51.97503906 15.46175781 -51.09460938 14.86492187 -50.1875 14.25 C-50.1875 13.59 -50.1875 12.93 -50.1875 12.25 C-47.04345863 10.97470247 -43.89694782 9.70560671 -40.75 8.4375 C-39.87150391 8.08107422 -38.99300781 7.72464844 -38.08789062 7.35742188 C-25.0572436 2.11631292 -14.13144284 0.05735745 0 0 Z " fill="#FFCE8D" transform="translate(255.1875,79.75)"/>
<path d="M0 0 C0.2578125 2.78515625 0.2578125 2.78515625 0 6 C-9.75683903 16.76849285 -30.48805483 24.36826794 -44.9921875 25.375 C-57.06051586 25.57243686 -67.84254103 23.52448139 -79 19 C-75.82485384 17.94161795 -74.32814843 18.04907486 -71.0625 18.4375 C-69.04202316 18.62880325 -67.02117835 18.81625651 -65 19 C-64.14792969 19.08121094 -63.29585937 19.16242188 -62.41796875 19.24609375 C-46.16967659 20.03115033 -25.19091653 14.85483491 -11.2578125 6.3203125 C-9 5 -9 5 -6 5 C-6 4.34 -6 3.68 -6 3 C-1.5 0 -1.5 0 0 0 Z " fill="#FEFCF8" transform="translate(305,245)"/>
<path d="M0 0 C3.08669204 3.08669204 3.44855089 3.91927658 4 8 C-6.75632965 17.94145619 -18.2960254 24.02088923 -32 29 C-21.68945041 26.51783066 -12.28773711 23.61656594 -2.953125 18.50390625 C-1.32759537 17.62061226 0.33356458 16.80345993 2 16 C2.66 16.33 3.32 16.66 4 17 C-13.6546053 28.14423024 -29.67465373 32.18649511 -50.41577148 32.24023438 C-52.66493251 32.24990299 -54.91316321 32.28098077 -57.16210938 32.3125 C-66.03464725 32.3774797 -74.51244832 31.943147 -83 29 C-83.66 28.34 -84.32 27.68 -85 27 C-82.03 27.33 -79.06 27.66 -76 28 C-78.54023648 26.87167643 -81.08208838 25.74726572 -83.625 24.625 C-84.33785156 24.30789063 -85.05070313 23.99078125 -85.78515625 23.6640625 C-89.80459396 21.89403488 -93.80107481 20.31133626 -98 19 C-98 17.68 -98 16.36 -98 15 C-95.31739596 16.02570155 -92.82440629 17.09800579 -90.3125 18.5 C-82.80799861 21.89826478 -74.83312371 22.27573872 -66.70947266 22.65869141 C-62.73704921 22.85019266 -58.90890137 23.26556356 -55 24 C-55 24.33 -55 24.66 -55 25 C-63.06350113 25.12867289 -70.97497656 24.79681084 -79 24 C-68.70197702 27.46763783 -68.70197702 27.46763783 -58 29 C-56.93652344 29.07476562 -55.87304688 29.14953125 -54.77734375 29.2265625 C-36.57131923 29.95403772 -17.33614901 22.79460096 -3.3828125 11.03125 C-2 10 -2 10 0 10 C0 6.7 0 3.4 0 0 Z " fill="#FFD297" transform="translate(307,240)"/>
<path d="M0 0 C2 0 4 0 6 0 C5.26117113 5.08855378 3.33144837 9.69079468 1.4375 14.4375 C1.0861499 15.31897705 0.7347998 16.2004541 0.37280273 17.10864258 C-6.9051708 34.9051708 -6.9051708 34.9051708 -12 40 C-12.09854655 41.64340867 -12.12972411 43.2911461 -12.125 44.9375 C-12.12757813 45.83339844 -12.13015625 46.72929687 -12.1328125 47.65234375 C-12.15421413 50.02155555 -12.15421413 50.02155555 -11 52 C-11.66 52 -12.32 52 -13 52 C-13.33 52.66 -13.66 53.32 -14 54 C-14 49.05 -14 44.1 -14 39 C-17.11257569 42.11257569 -18.9340406 44.28127309 -21 48 C-23.2477975 45.94766315 -24.0022242 44.99332739 -25 42 C-24.18208984 41.26910156 -24.18208984 41.26910156 -23.34765625 40.5234375 C-11.62847498 29.50540383 -3.90075231 15.60300924 0 0 Z " fill="#FDD7A6" transform="translate(334,196)"/>
<path d="M0 0 C0.66 0 1.32 0 2 0 C3.36363208 1.97946592 4.69418644 3.9819245 6 6 C6.5775 6.5775 7.155 7.155 7.75 7.75 C9 9 9 9 9 11 C9.99 11 10.98 11 12 11 C12 9.35 12 7.7 12 6 C14.475 6.495 14.475 6.495 17 7 C17.33 8.65 17.66 10.3 18 12 C18.87785156 12.27972656 19.75570312 12.55945313 20.66015625 12.84765625 C23.69081889 13.89332348 26.52271033 15.11034045 29.4375 16.4375 C39.14837101 20.53200905 49.55098378 22.08341963 60 23 C60 23.33 60 23.66 60 24 C45.47596672 24.38749891 33.00342758 24.25191154 20 17 C19.67 17.66 19.34 18.32 19 19 C18.071875 18.67 17.14375 18.34 16.1875 18 C13.07970709 16.85032996 13.07970709 16.85032996 10 17 C6.04433859 17 4.90085629 15.60390851 1.875 13.125 C0.98554688 12.40570313 0.09609375 11.68640625 -0.8203125 10.9453125 C-3 9 -3 9 -4 7 C-2.35 7 -0.7 7 1 7 C1.33 7.99 1.66 8.98 2 10 C2.66 10.33 3.32 10.66 4 11 C3.71125 10.37351563 3.4225 9.74703125 3.125 9.1015625 C2.75375 8.28429687 2.3825 7.46703125 2 6.625 C1.62875 5.81289062 1.2575 5.00078125 0.875 4.1640625 C0 2 0 2 0 0 Z " fill="#FEF9F2" transform="translate(190,239)"/>
<path d="M0 0 C5.62336695 1.04344288 10.13575188 4.75887977 14.73828125 7.95703125 C15.68316406 8.59511719 16.62804687 9.23320312 17.6015625 9.890625 C25.10784168 15.00514524 25.10784168 15.00514524 27.98828125 18.08203125 C13.07298517 19.38170435 3.50734955 14.58265253 -8.01171875 5.08203125 C-4.00919595 0.10919989 -4.00919595 0.10919989 0 0 Z " fill="#070605" transform="translate(255.01171875,191.91796875)"/>
<path d="M0 0 C16.00838677 7.17373624 26.6299396 31.00818381 32.95605469 46.31298828 C36.22995654 54.96320804 38.15013629 63.08555316 38.0625 72.375 C38.05347656 73.62023437 38.04445313 74.86546875 38.03515625 76.1484375 C38.02355469 77.08945313 38.01195312 78.03046875 38 79 C37.67 79 37.34 79 37 79 C36.89042969 77.90042969 36.78085937 76.80085938 36.66796875 75.66796875 C35.77248771 67.16282468 34.54211141 59.20408682 32 51 C32.495 58.92 32.495 58.92 33 67 C32.01 67.495 32.01 67.495 31 68 C30.91363281 67.11441406 30.82726562 66.22882813 30.73828125 65.31640625 C28.83587178 48.54378698 24.33958119 33.98218815 14.890625 19.84375 C13 17 13 17 11.3125 13.6875 C8.92297228 9.36313202 5.3788002 6.19918083 1.828125 2.8203125 C1.22484375 2.21960938 0.6215625 1.61890625 0 1 C0 0.67 0 0.34 0 0 Z " fill="#FFD298" transform="translate(314,103)"/>
<path d="M0 0 C0 0.99 0 1.98 0 3 C-0.66 2.34 -1.32 1.68 -2 1 C-1.34 0.67 -0.68 0.34 0 0 Z M0 3 C0 3.99 0 4.98 0 6 C-1.87109375 7.54296875 -1.87109375 7.54296875 -4.4375 9.1875 C-14.02147685 15.66242936 -25.20981808 24.18983341 -28 36 C-28.87141441 37.34297094 -29.79379297 38.65352097 -30.75 39.9375 C-34.6151437 45.52048535 -36.77281544 51.6239451 -39 58 C-39.66 58 -40.32 58 -41 58 C-41.4630237 59.62366976 -41.92009098 61.24903806 -42.375 62.875 C-42.63023437 63.77992188 -42.88546875 64.68484375 -43.1484375 65.6171875 C-45.26120441 74.01010557 -46.31959801 81.76674734 -46.25 90.4375 C-46.25773438 91.39720703 -46.26546875 92.35691406 -46.2734375 93.34570312 C-46.25740061 99.2993981 -45.63333599 104.79724711 -44.33105469 110.60961914 C-43.98876336 113.08113415 -44.22304902 114.65111798 -45 117 C-47.46411728 107.94143551 -48.52095286 99.50341992 -48.4375 90.125 C-48.42775146 88.89193115 -48.41800293 87.6588623 -48.40795898 86.38842773 C-48.23009454 77.25825415 -47.37183794 69.55581338 -44 61 C-43.68321289 60.18450684 -43.36642578 59.36901367 -43.04003906 58.52880859 C-37.40099052 44.18781233 -19.19952314 3 0 3 Z " fill="#FFD59E" transform="translate(207,91)"/>
<path d="M0 0 C0.33 0 0.66 0 1 0 C1.71308773 3.70157356 2.20224746 7.22648816 2 11 C-1.29910232 14.95892278 -4.36972403 16.19888919 -9.09960938 18.18798828 C-10.96890222 18.98671233 -12.81278333 19.82713759 -14.65625 20.68359375 C-36.06061176 30.51503711 -36.06061176 30.51503711 -47 30 C-43.65548066 28.18906514 -40.23482415 27.0562468 -36.625 25.875 C-25.6962318 21.99704999 -16.06162589 16.71328005 -7.76953125 8.46875 C-6 7 -6 7 -3 7 C-2.690625 6.21625 -2.38125 5.4325 -2.0625 4.625 C-1 2 -1 2 0 0 Z " fill="#FDF9F3" transform="translate(317,240)"/>
<path d="M0 0 C0.33 0 0.66 0 1 0 C2.02467816 18.21650063 -3.08203894 33.46175877 -12.75390625 48.77734375 C-14.52046959 51.92836111 -13.96160297 53.56570369 -13 57 C-12.49649125 58.23636442 -11.97513992 59.46559109 -11.4375 60.6875 C-10 64 -10 64 -10 67 C-10.66 67 -11.32 67 -12 67 C-12.33 65.68 -12.66 64.36 -13 63 C-15.31 63 -17.62 63 -20 63 C-20.33 64.32 -20.66 65.64 -21 67 C-21.66 67 -22.32 67 -23 67 C-21.7475772 60.00627269 -19.33684591 53.66633306 -15.1875 47.875 C-5.21902894 33.60541198 -1.80950418 16.96676275 0 0 Z " fill="#FCD29A" transform="translate(349,183)"/>
<path d="M0 0 C2.58990277 1.29495138 2.94702057 2.56247378 4.25 5.125 C8.93331442 13.71786385 15.25590176 19.10775134 23 25 C21.77946141 28.66161578 20.63217696 29.16270474 17.4375 31.1875 C16.61121094 31.71730469 15.78492188 32.24710938 14.93359375 32.79296875 C14.29550781 33.19128906 13.65742188 33.58960938 13 34 C9.125 32.25 9.125 32.25 8 30 C11.465 29.505 11.465 29.505 15 29 C13.3814031 25.33640165 11.09453439 22.4506957 8.625 19.3125 C4.03189998 13.33147101 0 7.72060484 0 0 Z " fill="#EBBB7A" transform="translate(218,167)"/>
<path d="M0 0 C2.4375 1.5 2.4375 1.5 4 3 C2.125 7.875 2.125 7.875 1 9 C-0.64107242 9.20839015 -2.28856293 9.36751725 -3.9375 9.5 C-7.60557465 9.75214943 -7.60557465 9.75214943 -11 11 C-12.54023996 11.06950541 -14.08334988 11.08452357 -15.625 11.0625 C-16.85089844 11.04896484 -16.85089844 11.04896484 -18.1015625 11.03515625 C-19.04128906 11.01775391 -19.04128906 11.01775391 -20 11 C-20 10.01 -20 9.02 -20 8 C-17.99857886 6.42594999 -16.10126879 5.12308504 -13.9375 3.8125 C-13.37611328 3.44447266 -12.81472656 3.07644531 -12.23632812 2.69726562 C-8.02258517 0.10159997 -4.89563973 -0.50501138 0 0 Z " fill="#080706" transform="translate(241,204)"/>
<path d="M0 0 C0.66 0 1.32 0 2 0 C3.36363208 1.97946592 4.69418644 3.9819245 6 6 C6.5775 6.5775 7.155 7.155 7.75 7.75 C9 9 9 9 9 11 C9.58265625 10.78472656 10.1653125 10.56945312 10.765625 10.34765625 C13 10 13 10 14.921875 10.99609375 C15.52515625 11.47175781 16.1284375 11.94742188 16.75 12.4375 C17.36359375 12.91058594 17.9771875 13.38367188 18.609375 13.87109375 C19.06828125 14.24363281 19.5271875 14.61617187 20 15 C19.67 16.32 19.34 17.64 19 19 C18.071875 18.67 17.14375 18.34 16.1875 18 C13.07970709 16.85032996 13.07970709 16.85032996 10 17 C6.04433859 17 4.90085629 15.60390851 1.875 13.125 C0.98554688 12.40570313 0.09609375 11.68640625 -0.8203125 10.9453125 C-3 9 -3 9 -4 7 C-2.35 7 -0.7 7 1 7 C1.33 7.99 1.66 8.98 2 10 C2.66 10.33 3.32 10.66 4 11 C3.71125 10.37351563 3.4225 9.74703125 3.125 9.1015625 C2.75375 8.28429687 2.3825 7.46703125 2 6.625 C1.62875 5.81289062 1.2575 5.00078125 0.875 4.1640625 C0 2 0 2 0 0 Z " fill="#FED195" transform="translate(190,239)"/>
<path d="M0 0 C3.57756806 0.62218575 5.78968103 2.10346743 8.6875 4.25 C13.27993409 7.55955502 17.99026733 10.37412563 23 13 C22.67 14.32 22.34 15.64 22 17 C15.72283182 16.68512587 11.60601738 13.41309028 6.625 9.9375 C5.79355469 9.36966797 4.96210938 8.80183594 4.10546875 8.21679688 C2.06370383 6.82041742 0.0290625 5.41474458 -2 4 C-1.34 2.68 -0.68 1.36 0 0 Z " fill="#070705" transform="translate(275,193)"/>
<path d="M0 0 C7.37042925 -0.36248013 7.37042925 -0.36248013 10.0625 1.1875 C11.39336527 3.76050619 10.73712552 5.25253214 10 8 C9.78918149 11.89459074 9.78918149 11.89459074 11 15 C10.01 15 9.02 15 8 15 C7.62875 14.0409375 7.62875 14.0409375 7.25 13.0625 C6.18437567 10.81258459 6.18437567 10.81258459 3.875 10.25 C3.25625 10.1675 2.6375 10.085 2 10 C2 11.65 2 13.3 2 15 C1.34 15 0.68 15 0 15 C0 10.05 0 5.1 0 0 Z " fill="#615D51" transform="translate(200,235)"/>
<path d="M0 0 C3.63 0 7.26 0 11 0 C11 3.3 11 6.6 11 10 C7.37 10 3.74 10 0 10 C0 6.7 0 3.4 0 0 Z " fill="#FFF8F0" transform="translate(256,221)"/>
<path d="M0 0 C4.52346473 2.26173236 5.05828666 3.53405933 7 8 C9.12038635 5.38485683 11.13091744 2.80362384 13 0 C13.66 0 14.32 0 15 0 C15 4.95 15 9.9 15 15 C14.34 15 13.68 15 13 15 C12.67 12.36 12.34 9.72 12 7 C11.566875 7.825 11.13375 8.65 10.6875 9.5 C9.8521875 10.7375 9.8521875 10.7375 9 12 C8.01 12 7.02 12 6 12 C5.01 10.02 4.02 8.04 3 6 C2.67 8.97 2.34 11.94 2 15 C1.34 15 0.68 15 0 15 C0 10.05 0 5.1 0 0 Z " fill="#3C474A" transform="translate(305,235)"/>
<path d="M0 0 C3.3 0 6.6 0 10 0 C10 3.3 10 6.6 10 10 C6.7 10 3.4 10 0 10 C0 6.7 0 3.4 0 0 Z " fill="#FFFBF5" transform="translate(242,221)"/>
<path d="M0 0 C4.33257012 0.71516513 8.34154957 2.08554912 12.4375 3.625 C13.47680664 4.01389404 13.47680664 4.01389404 14.53710938 4.41064453 C21.61100527 7.1253084 28.30355522 10.4634401 35 14 C34.34 14.33 33.68 14.66 33 15 C30.75689987 14.10333658 28.55245679 13.10853317 26.375 12.0625 C25.18648438 11.49660156 23.99796875 10.93070313 22.7734375 10.34765625 C21.85820312 9.90292969 20.94296875 9.45820312 20 9 C20.33 9.99 20.66 10.98 21 12 C18.99909236 11.33606246 16.99931425 10.66872041 15 10 C13.89140625 9.63261719 12.7828125 9.26523438 11.640625 8.88671875 C9.96226562 8.29310547 9.96226562 8.29310547 8.25 7.6875 C7.12078125 7.29949219 5.9915625 6.91148438 4.828125 6.51171875 C2 5 2 5 0.609375 2.33203125 C0.40828125 1.56246094 0.2071875 0.79289062 0 0 Z " fill="#FFD59F" transform="translate(273,90)"/>
<path d="M0 0 C2.70270375 2.40063686 4.12225794 4.91523897 5.75 8.125 C10.45737 17.34855593 10.45737 17.34855593 18 24 C18 24.66 18 25.32 18 26 C16.35 26 14.7 26 13 26 C13 30.62 13 35.24 13 40 C12.34 40 11.68 40 11 40 C11 35.38 11 30.76 11 26 C9.35 26 7.7 26 6 26 C6 25.34 6 24.68 6 24 C9.465 23.505 9.465 23.505 13 23 C12.39671875 22.154375 11.7934375 21.30875 11.171875 20.4375 C0 4.63651093 0 4.63651093 0 0 Z " fill="#867F70" transform="translate(160,210)"/>
<path d="M0 0 C4.81429916 2.40714958 6.6345082 4.86962371 10 9 C10.33 6.03 10.66 3.06 11 0 C11.66 0 12.32 0 13 0 C13 4.95 13 9.9 13 15 C9.13209997 13.06604999 8.12365764 12.2196994 5.75 8.875 C4.38875 6.956875 4.38875 6.956875 3 5 C2.67 8.3 2.34 11.6 2 15 C1.34 15 0.68 15 0 15 C0 10.05 0 5.1 0 0 Z " fill="#434845" transform="translate(250,235)"/>
<path d="M0 0 C3 1 3 1 4.38671875 3.3984375 C4.81597656 4.38070312 5.24523437 5.36296875 5.6875 6.375 C6.34298828 7.84066406 6.34298828 7.84066406 7.01171875 9.3359375 C8 12 8 12 8 15 C7.34 15 6.68 15 6 15 C5.67 13.68 5.34 12.36 5 11 C2.69 11 0.38 11 -2 11 C-2.33 12.32 -2.66 13.64 -3 15 C-3.66 15 -4.32 15 -5 15 C-4.37321829 11.33827525 -3.35548154 8.1181005 -1.9375 4.6875 C-1.39416016 3.36298828 -1.39416016 3.36298828 -0.83984375 2.01171875 C-0.56269531 1.34785156 -0.28554688 0.68398437 0 0 Z " fill="#525E64" transform="translate(331,235)"/>
<path d="M0 0 C3 1 3 1 4.38671875 3.65234375 C4.81597656 4.73644531 5.24523437 5.82054687 5.6875 6.9375 C6.34298828 8.55978516 6.34298828 8.55978516 7.01171875 10.21484375 C8 13 8 13 8 15 C7.01 14.67 6.02 14.34 5 14 C5 13.01 5 12.02 5 11 C2.69 11.33 0.38 11.66 -2 12 C-2.33 12.99 -2.66 13.98 -3 15 C-3.99 14.67 -4.98 14.34 -6 14 C-4.02 9.38 -2.04 4.76 0 0 Z " fill="#3F4B51" transform="translate(186,235)"/>
<path d="M0 0 C0.66 0 1.32 0 2 0 C2 1.98 2 3.96 2 6 C4.64 6 7.28 6 10 6 C10 4.02 10 2.04 10 0 C10.66 0 11.32 0 12 0 C12 4.95 12 9.9 12 15 C11.34 15 10.68 15 10 15 C10 12.69 10 10.38 10 8 C7.36 8 4.72 8 2 8 C2 10.31 2 12.62 2 15 C1.34 15 0.68 15 0 15 C0 10.05 0 5.1 0 0 Z " fill="#29363C" transform="translate(286,235)"/>
<path d="M0 0 C3.3 0 6.6 0 10 0 C10 0.66 10 1.32 10 2 C7.36 2 4.72 2 2 2 C2 3.32 2 4.64 2 6 C4.31 6 6.62 6 9 6 C9 6.66 9 7.32 9 8 C6.69 8 4.38 8 2 8 C2 9.65 2 11.3 2 13 C4.64 13 7.28 13 10 13 C10 13.66 10 14.32 10 15 C6.7 15 3.4 15 0 15 C0 10.05 0 5.1 0 0 Z " fill="#454A45" transform="translate(270,235)"/>
<path d="M0 0 C3.3 0 6.6 0 10 0 C10 0.66 10 1.32 10 2 C7.36 2 4.72 2 2 2 C2 3.32 2 4.64 2 6 C4.31 6 6.62 6 9 6 C9 6.66 9 7.32 9 8 C6.69 8 4.38 8 2 8 C2 9.65 2 11.3 2 13 C4.64 13 7.28 13 10 13 C10 13.66 10 14.32 10 15 C6.7 15 3.4 15 0 15 C0 10.05 0 5.1 0 0 Z " fill="#454A45" transform="translate(217,235)"/>
<path d="M0 0 C0 2.97 0 5.94 0 9 C-2.97 9 -5.94 9 -9 9 C-8.6507442 5.85669777 -8.16074267 4.20508548 -6.1875 1.6875 C-4 0 -4 0 0 0 Z " fill="#FBFBFA" transform="translate(251,207)"/>
<path d="M0 0 C3.14330223 0.3492558 4.79491452 0.83925733 7.3125 2.8125 C9 5 9 5 9 9 C6.03 9 3.06 9 0 9 C0 6.03 0 3.06 0 0 Z " fill="#FFFEFD" transform="translate(257,207)"/>
<path d="M0 0 C3.08669204 3.08669204 3.44855089 3.91927658 4 8 C2.13114096 9.61181532 0.25546823 11.21432428 -1.625 12.8125 C-2.40810547 13.49022461 -2.40810547 13.49022461 -3.20703125 14.18164062 C-6.60213413 17.05280788 -9.91413046 19.15338328 -14 21 C-14 20.01 -14 19.02 -14 18 C-11.69921875 16.2109375 -11.69921875 16.2109375 -8.6875 14.375 C-7.70136719 13.76398438 -6.71523438 13.15296875 -5.69921875 12.5234375 C-3 11 -3 11 0 10 C0 6.7 0 3.4 0 0 Z " fill="#FDD095" transform="translate(307,240)"/>
<path d="M0 0 C0.66 0 1.32 0 2 0 C3.36363208 1.97946592 4.69418644 3.9819245 6 6 C6.5775 6.5775 7.155 7.155 7.75 7.75 C9 9 9 9 9 11 C9.556875 11.061875 10.11375 11.12375 10.6875 11.1875 C13.94987173 12.33373872 15.68667874 14.49390197 18 17 C12.33247635 15.54678881 7.27905662 13.00217649 3 9 C1.48377267 6.07720959 0.62359197 3.22547569 0 0 Z " fill="#FAF6F1" transform="translate(190,239)"/>
<path d="M0 0 C3.73639216 1.24546405 4.18756513 2.63404953 6 6 C7.50559539 4.03617993 8.89131683 2.21736634 10 0 C10.99 0.33 11.98 0.66 13 1 C12.65066406 1.50789062 12.30132812 2.01578125 11.94140625 2.5390625 C9.19475288 6.69405656 7.3818364 9.90884805 7 15 C6.34 15 5.68 15 5 15 C4.9175 14.01 4.835 13.02 4.75 12 C4.13691993 7.52543052 2.18031955 3.90429315 0 0 Z " fill="#414744" transform="translate(232,235)"/>
<path d="M0 0 C6.0546875 -0.1953125 6.0546875 -0.1953125 8 0 C8.66 0.66 9.32 1.32 10 2 C9.625 4.125 9.625 4.125 9 6 C8.67 5.01 8.34 4.02 8 3 C5.03 2.505 5.03 2.505 2 2 C2 3.98 2 5.96 2 8 C3.32 8.33 4.64 8.66 6 9 C4.35 9 2.7 9 1 9 C1 10.98 1 12.96 1 15 C0.67 15 0.34 15 0 15 C0 10.05 0 5.1 0 0 Z " fill="#3D4443" transform="translate(200,235)"/>
<path d="M0 0 C-1.3584202 3.04332765 -2.88463024 5.12309151 -5.2578125 7.453125 C-5.88300781 8.071875 -6.50820312 8.690625 -7.15234375 9.328125 C-7.80332031 9.96234375 -8.45429688 10.5965625 -9.125 11.25 C-9.78371094 11.8996875 -10.44242188 12.549375 -11.12109375 13.21875 C-12.74296643 14.81711727 -14.3693281 16.41061897 -16 18 C-16 13.73187416 -13.48608073 11.92209942 -10.6875 9 C-10.18798828 8.46632813 -9.68847656 7.93265625 -9.17382812 7.3828125 C-7.79281451 5.91217019 -6.39691782 4.45554389 -5 3 C-4.42894531 2.38125 -3.85789063 1.7625 -3.26953125 1.125 C-2 0 -2 0 0 0 Z " fill="#FFE8CB" transform="translate(186,105)"/>
<path d="M0 0 C-1.53643852 3.68069887 -3.78150945 5.98775204 -6.625 8.75 C-7.85089844 9.94882813 -7.85089844 9.94882813 -9.1015625 11.171875 C-9.72804688 11.77515625 -10.35453125 12.3784375 -11 13 C-11.66 12.01 -12.32 11.02 -13 10 C-11.54474941 8.51780033 -10.085701 7.03932861 -8.625 5.5625 C-7.81289063 4.73878906 -7.00078125 3.91507813 -6.1640625 3.06640625 C-2.95274102 0 -2.95274102 0 0 0 Z " fill="#FCD6A2" transform="translate(322,228)"/>
<path d="M0 0 C0 3.62453269 -0.92469613 5.07920195 -3 8 C-3.99 8.33 -4.98 8.66 -6 9 C-7.44870619 10.85804317 -7.44870619 10.85804317 -8.6875 13.0625 C-9.12449219 13.79597656 -9.56148438 14.52945313 -10.01171875 15.28515625 C-10.50091797 16.13400391 -10.50091797 16.13400391 -11 17 C-11.66 16.67 -12.32 16.34 -13 16 C-12.42308522 12.83145253 -11.58353113 11.21773541 -9.27734375 8.984375 C-8.73916016 8.45585937 -8.20097656 7.92734375 -7.64648438 7.3828125 C-7.08251953 6.84398437 -6.51855469 6.30515625 -5.9375 5.75 C-5.36966797 5.19570312 -4.80183594 4.64140625 -4.21679688 4.0703125 C-2.81787531 2.70665786 -1.40980886 1.35239583 0 0 Z " fill="#F5F0E8" transform="translate(324,227)"/>
<path d="M0 0 C0.99 0.33 1.98 0.66 3 1 C3.33 2.65 3.66 4.3 4 6 C3.01 5.67 2.02 5.34 1 5 C0.34 6.32 -0.32 7.64 -1 9 C0.65 9 2.3 9 4 9 C4 9.33 4 9.66 4 10 C2.02 10 0.04 10 -2 10 C-2.33 11.65 -2.66 13.3 -3 15 C-3.66 15 -4.32 15 -5 15 C-4.37321829 11.33827525 -3.35548154 8.1181005 -1.9375 4.6875 C-1.39416016 3.36298828 -1.39416016 3.36298828 -0.83984375 2.01171875 C-0.56269531 1.34785156 -0.28554688 0.68398437 0 0 Z " fill="#414C51" transform="translate(331,235)"/>
<path d="M0 0 C1.65 0 3.3 0 5 0 C5.33 0.99 5.66 1.98 6 3 C7.60447356 4.08192533 7.60447356 4.08192533 9.5 4.9375 C12.8884075 6.732178 12.8884075 6.732178 13.9375 9.25 C13.958125 9.8275 13.97875 10.405 14 11 C9.96407129 9.63079505 7.32473622 7.80419512 4.1875 4.9375 C3.39730469 4.22464844 2.60710937 3.51179687 1.79296875 2.77734375 C1.20128906 2.19082031 0.60960937 1.60429687 0 1 C0 0.67 0 0.34 0 0 Z " fill="#FAE0BE" transform="translate(186,246)"/>
<path d="M0 0 C0.66 0 1.32 0 2 0 C2 4.95 2 9.9 2 15 C1.34 15 0.68 15 0 15 C0 12.36 0 9.72 0 7 C-2.64 7 -5.28 7 -8 7 C-8 6.67 -8 6.34 -8 6 C-5.36 6 -2.72 6 0 6 C0 4.02 0 2.04 0 0 Z " fill="#4E5048" transform="translate(296,235)"/>
<path d="M0 0 C1.98 0 3.96 0 6 0 C6.042721 1.66611905 6.04063832 3.33382885 6 5 C5 6 5 6 2.4375 6.0625 C1.2309375 6.0315625 1.2309375 6.0315625 0 6 C0 4.02 0 2.04 0 0 Z " fill="#F5C380" transform="translate(202,237)"/>
<path d="M0 0 C7.24202348 0.73898199 13.12879628 2.34940369 18 8 C13.78224268 6.64474464 9.70578678 5.09799886 5.625 3.375 C4.56539063 2.92898437 3.50578125 2.48296875 2.4140625 2.0234375 C1.61742187 1.68570313 0.82078125 1.34796875 0 1 C0 0.67 0 0.34 0 0 Z " fill="#FFF2E1" transform="translate(276,94)"/>
<path d="M0 0 C-3.19668988 2.6486859 -6.39486597 4.93992341 -10 7 C-10.99 6.34 -11.98 5.68 -13 5 C-4.738041 -0.74031891 -4.738041 -0.74031891 0 0 Z " fill="#FFEACF" transform="translate(207,93)"/>
<path d="M0 0 C0.99 0.33 1.98 0.66 3 1 C3 1.66 3 2.32 3 3 C2.34 3 1.68 3 1 3 C1.33 3.66 1.66 4.32 2 5 C2.06996014 6.70702735 2.08440154 8.41668003 2.0625 10.125 C2.05347656 11.03507813 2.04445313 11.94515625 2.03515625 12.8828125 C2.02355469 13.58148438 2.01195312 14.28015625 2 15 C1.34 15 0.68 15 0 15 C0 10.05 0 5.1 0 0 Z " fill="#2B383F" transform="translate(305,235)"/>
<path d="M0 0 C0.33 0 0.66 0 1 0 C1.33 3.63 1.66 7.26 2 11 C1.34 11 0.68 11 0 11 C-0.66 12.32 -1.32 13.64 -2 15 C-2.22577402 9.5814234 -1.46670113 5.22512279 0 0 Z " fill="#FED5A0" transform="translate(338,175)"/>
<path d="M0 0 C3.33167713 2.52126918 5.44493319 4.59324425 8 8 C4.04 8 0.08 8 -4 8 C-4 7.67 -4 7.34 -4 7 C-0.535 6.505 -0.535 6.505 3 6 C2.2575 5.071875 2.2575 5.071875 1.5 4.125 C0 2 0 2 0 0 Z " fill="#EDD3B1" transform="translate(170,227)"/>
<path d="M0 0 C4.10958767 1.45044271 7.43258745 3.51110752 11 6 C10.01 6.495 10.01 6.495 9 7 C6.3984375 6.00390625 6.3984375 6.00390625 3.375 4.5625 C2.37210937 4.08941406 1.36921875 3.61632812 0.3359375 3.12890625 C-0.43492187 2.75636719 -1.20578125 2.38382812 -2 2 C-1.34 1.34 -0.68 0.68 0 0 Z " fill="#FFD39A" transform="translate(294,89)"/>
<path d="M0 0 C0.66 0.66 1.32 1.32 2 2 C-2.95 4.475 -2.95 4.475 -8 7 C-8.66 6.34 -9.32 5.68 -10 5 C-6.7 3.35 -3.4 1.7 0 0 Z " fill="#FFE7C9" transform="translate(216,97)"/>
<path d="M0 0 C3 3 3 3 4 6 C2.68 6.99 1.36 7.98 0 9 C0 6.03 0 3.06 0 0 Z " fill="#F5EBDD" transform="translate(307,240)"/>
<path d="M0 0 C1.65 1.32 3.3 2.64 5 4 C4.67 5.32 4.34 6.64 4 8 C2.35 6.02 0.7 4.04 -1 2 C-0.67 1.34 -0.34 0.68 0 0 Z " fill="#FED8A6" transform="translate(194,240)"/>
<path d="M0 0 C2.35953094 2.35953094 2.49141413 3.77895617 3 7 C2.01 6.67 1.02 6.34 0 6 C0 5.01 0 4.02 0 3 C-2.31 3 -4.62 3 -7 3 C-7 2.67 -7 2.34 -7 2 C-4.69 2 -2.38 2 0 2 C0 1.34 0 0.68 0 0 Z " fill="#5B6160" transform="translate(191,243)"/>
<path d="M0 0 C0.33 0 0.66 0 1 0 C1 4.95 1 9.9 1 15 C0.01 14.67 -0.98 14.34 -2 14 C-2 13.34 -2 12.68 -2 12 C-1.34 12 -0.68 12 0 12 C0 8.04 0 4.08 0 0 Z " fill="#27353C" transform="translate(262,235)"/>
<path d="M0 0 C2.1385485 2.1385485 2.42655063 3.13275314 3 6 C1.35 6 -0.3 6 -2 6 C-1.125 1.125 -1.125 1.125 0 0 Z " fill="#E6E2DB" transform="translate(187,238)"/>
<path d="M0 0 C0 0.99 0 1.98 0 3 C-2.35438733 4.42944945 -3.48032433 5.08661261 -6.25 4.625 C-6.8275 4.41875 -7.405 4.2125 -8 4 C-2.25 0 -2.25 0 0 0 Z " fill="#FFEACE" transform="translate(204,104)"/>
<path d="M0 0 C3.93673644 1.31224548 6.22719294 2.91910327 9 6 C5.37546731 6 3.92079805 5.07530387 1 3 C0.67 2.01 0.34 1.02 0 0 Z " fill="#FFDCAE" transform="translate(293,100)"/>
<path d="M0 0 C3 3.75 3 3.75 3 6 C1.35 6 -0.3 6 -2 6 C-1.34 4.02 -0.68 2.04 0 0 Z " fill="#EDEEEE" transform="translate(332,238)"/>
<path d="M0 0 C3 3 3 3 3.07421875 5.26171875 C2.94660156 6.06222656 2.81898438 6.86273438 2.6875 7.6875 C2.50767578 8.89986328 2.50767578 8.89986328 2.32421875 10.13671875 C2.21722656 10.75160156 2.11023438 11.36648437 2 12 C1.67 12 1.34 12 1 12 C0.67 8.04 0.34 4.08 0 0 Z " fill="#FFF2E1" transform="translate(338,171)"/>
<path d="M0 0 C2.475 0.495 2.475 0.495 5 1 C5.33 2.32 5.66 3.64 6 5 C4 4 2 3 0 2 C0 1.34 0 0.68 0 0 Z " fill="#F5C584" transform="translate(202,245)"/>
<path d="M0 0 C4.92307692 4.30769231 4.92307692 4.30769231 5.3125 7.8125 C5.209375 8.534375 5.10625 9.25625 5 10 C2.35534962 6.8745041 1.15585285 3.91211733 0 0 Z " fill="#FFD6A0" transform="translate(325,114)"/>
</svg>
